<?xml version="1.0" encoding="utf-8" standalone="no"?>
<!DOCTYPE svg PUBLIC "-//W3C//DTD SVG 1.1//EN"
  "http://www.w3.org/Graphics/SVG/1.1/DTD/svg11.dtd">
<svg xmlns:xlink="http://www.w3.org/1999/xlink" width="1152pt" height="432pt" viewBox="0 0 1152 432" xmlns="http://www.w3.org/2000/svg" version="1.1">
 <metadata>
  <rdf:RDF xmlns:dc="http://purl.org/dc/elements/1.1/" xmlns:cc="http://creativecommons.org/ns#" xmlns:rdf="http://www.w3.org/1999/02/22-rdf-syntax-ns#">
   <cc:Work>
    <dc:type rdf:resource="http://purl.org/dc/dcmitype/StillImage"/>
    <dc:date>2026-09-13T16:22:22.605342</dc:date>
    <dc:format>image/svg+xml</dc:format>
    <dc:creator>
     <cc:Agent>
      <dc:title>Matplotlib v3.11.1, https://matplotlib.org/</dc:title>
     </cc:Agent>
    </dc:creator>
   </cc:Work>
  </rdf:RDF>
 </metadata>
 <defs>
  <style type="text/css">*{stroke-linejoin: round; stroke-linecap: butt}</style>
 </defs>
 <g id="figure_1">
  <g id="patch_1">
   <path d="M 0 432 
L 1152 432 
L 1152 0 
L 0 0 
z
" style="fill: #ffffff"/>
  </g>
  <g id="axes_1">
   <g id="patch_2">
    <path d="M 74.88 332.64 
L 389.061818 332.64 
L 389.061818 86.4 
L 74.88 86.4 
z
" style="fill: #ffffff"/>
   </g>
   <g id="matplotlib.axis_1">
    <g id="xtick_1">
     <g id="line2d_1">
      <defs>
       <path id="m17f3399128" d="M 0 0 
L 0 3.5 
" style="stroke: #000000; stroke-width: 0.8"/>
      </defs>
      <g>
       <use xlink:href="#m17f3399128" x="89.160992" y="332.64" style="stroke: #000000; stroke-width: 0.8"/>
      </g>
     </g>
     <g id="text_1">
      <!-- 2021 -->
      <g transform="translate(79.095411 355.292924) rotate(-20) scale(0.1 -0.1)">
       <defs>
        <path id="MicrosoftYaHei-18" d="M 2666 3572 
Q 2666 3963 2419 4186 
Q 2172 4409 1747 4409 
Q 1447 4409 1140 4256 
Q 834 4103 569 3819 
L 569 4413 
Q 806 4659 1107 4790 
Q 1409 4922 1816 4922 
Q 2472 4922 2872 4570 
Q 3272 4219 3272 3619 
Q 3272 3084 3026 2693 
Q 2781 2303 2188 1894 
Q 1581 1475 1376 1294 
Q 1172 1113 1090 947 
Q 1009 781 1009 544 
L 3416 544 
L 3416 0 
L 372 0 
L 372 241 
Q 372 659 486 951 
Q 600 1244 862 1520 
Q 1125 1797 1681 2184 
Q 2250 2584 2458 2886 
Q 2666 3188 2666 3572 
z
" transform="scale(0.015625)"/>
        <path id="MicrosoftYaHei-16" d="M 284 2325 
Q 284 3606 709 4264 
Q 1134 4922 1941 4922 
Q 3478 4922 3478 2441 
Q 3478 1216 3045 567 
Q 2613 -81 1831 -81 
Q 1094 -81 689 534 
Q 284 1150 284 2325 
z
M 909 2353 
Q 909 425 1888 425 
Q 2850 425 2850 2384 
Q 2850 4413 1906 4413 
Q 909 4413 909 2353 
z
" transform="scale(0.015625)"/>
        <path id="MicrosoftYaHei-17" d="M 1781 0 
L 1781 4141 
Q 1638 3997 1295 3819 
Q 953 3641 663 3569 
L 663 4169 
Q 1047 4275 1484 4508 
Q 1922 4741 2156 4947 
L 2388 4947 
L 2388 0 
L 1781 0 
z
" transform="scale(0.015625)"/>
       </defs>
       <use xlink:href="#MicrosoftYaHei-18"/>
       <use xlink:href="#MicrosoftYaHei-16" transform="translate(58.640625 0)"/>
       <use xlink:href="#MicrosoftYaHei-18" transform="translate(117.28125 0)"/>
       <use xlink:href="#MicrosoftYaHei-17" transform="translate(175.921875 0)"/>
      </g>
     </g>
    </g>
    <g id="xtick_2">
     <g id="line2d_2">
      <g>
       <use xlink:href="#m17f3399128" x="146.284959" y="332.64" style="stroke: #000000; stroke-width: 0.8"/>
      </g>
     </g>
     <g id="text_2">
      <!-- 2022 -->
      <g transform="translate(136.219378 355.292924) rotate(-20) scale(0.1 -0.1)">
       <use xlink:href="#MicrosoftYaHei-18"/>
       <use xlink:href="#MicrosoftYaHei-16" transform="translate(58.640625 0)"/>
       <use xlink:href="#MicrosoftYaHei-18" transform="translate(117.28125 0)"/>
       <use xlink:href="#MicrosoftYaHei-18" transform="translate(175.921875 0)"/>
      </g>
     </g>
    </g>
    <g id="xtick_3">
     <g id="line2d_3">
      <g>
       <use xlink:href="#m17f3399128" x="203.408926" y="332.64" style="stroke: #000000; stroke-width: 0.8"/>
      </g>
     </g>
     <g id="text_3">
      <!-- 2023 -->
      <g transform="translate(193.343345 355.292924) rotate(-20) scale(0.1 -0.1)">
       <defs>
        <path id="MicrosoftYaHei-19" d="M 447 809 
Q 944 425 1569 425 
Q 2069 425 2361 670 
Q 2653 916 2653 1328 
Q 2653 2247 1338 2247 
L 934 2247 
L 934 2753 
L 1319 2753 
Q 2484 2753 2484 3616 
Q 2484 4413 1594 4413 
Q 1084 4413 634 4069 
L 634 4647 
Q 1109 4922 1744 4922 
Q 2363 4922 2738 4598 
Q 3113 4275 3113 3759 
Q 3113 2809 2144 2538 
L 2144 2525 
Q 2669 2469 2973 2155 
Q 3278 1841 3278 1372 
Q 3278 719 2808 319 
Q 2338 -81 1556 -81 
Q 869 -81 447 175 
L 447 809 
z
" transform="scale(0.015625)"/>
       </defs>
       <use xlink:href="#MicrosoftYaHei-18"/>
       <use xlink:href="#MicrosoftYaHei-16" transform="translate(58.640625 0)"/>
       <use xlink:href="#MicrosoftYaHei-18" transform="translate(117.28125 0)"/>
       <use xlink:href="#MicrosoftYaHei-19" transform="translate(175.921875 0)"/>
      </g>
     </g>
    </g>
    <g id="xtick_4">
     <g id="line2d_4">
      <g>
       <use xlink:href="#m17f3399128" x="260.532893" y="332.64" style="stroke: #000000; stroke-width: 0.8"/>
      </g>
     </g>
     <g id="text_4">
      <!-- 2024 -->
      <g transform="translate(250.467312 355.292924) rotate(-20) scale(0.1 -0.1)">
       <defs>
        <path id="MicrosoftYaHei-1a" d="M 2906 4841 
L 2906 1644 
L 3631 1644 
L 3631 1138 
L 2906 1138 
L 2906 0 
L 2313 0 
L 2313 1138 
L 53 1138 
L 53 1616 
Q 656 2294 1265 3178 
Q 1875 4063 2272 4841 
L 2906 4841 
z
M 741 1644 
L 2313 1644 
L 2313 3950 
Q 1988 3366 1616 2817 
Q 1244 2269 741 1644 
z
" transform="scale(0.015625)"/>
       </defs>
       <use xlink:href="#MicrosoftYaHei-18"/>
       <use xlink:href="#MicrosoftYaHei-16" transform="translate(58.640625 0)"/>
       <use xlink:href="#MicrosoftYaHei-18" transform="translate(117.28125 0)"/>
       <use xlink:href="#MicrosoftYaHei-1a" transform="translate(175.921875 0)"/>
      </g>
     </g>
    </g>
    <g id="xtick_5">
     <g id="line2d_5">
      <g>
       <use xlink:href="#m17f3399128" x="317.65686" y="332.64" style="stroke: #000000; stroke-width: 0.8"/>
      </g>
     </g>
     <g id="text_5">
      <!-- 2025 -->
      <g transform="translate(307.591279 355.292924) rotate(-20) scale(0.1 -0.1)">
       <defs>
        <path id="MicrosoftYaHei-1b" d="M 3294 1494 
Q 3294 784 2823 350 
Q 2353 -84 1559 -84 
Q 878 -84 544 119 
L 544 744 
Q 1034 425 1544 425 
Q 2050 425 2361 704 
Q 2672 984 2672 1447 
Q 2672 1909 2348 2167 
Q 2025 2425 1434 2425 
Q 978 2425 613 2384 
L 791 4841 
L 3053 4841 
L 3053 4303 
L 1306 4303 
L 1206 2931 
L 1647 2950 
Q 2416 2950 2855 2567 
Q 3294 2184 3294 1494 
z
" transform="scale(0.015625)"/>
       </defs>
       <use xlink:href="#MicrosoftYaHei-18"/>
       <use xlink:href="#MicrosoftYaHei-16" transform="translate(58.640625 0)"/>
       <use xlink:href="#MicrosoftYaHei-18" transform="translate(117.28125 0)"/>
       <use xlink:href="#MicrosoftYaHei-1b" transform="translate(175.921875 0)"/>
      </g>
     </g>
    </g>
    <g id="xtick_6">
     <g id="line2d_6">
      <g>
       <use xlink:href="#m17f3399128" x="374.780826" y="332.64" style="stroke: #000000; stroke-width: 0.8"/>
      </g>
     </g>
     <g id="text_6">
      <!-- 2026* -->
      <g transform="translate(362.576711 356.84965) rotate(-20) scale(0.1 -0.1)">
       <defs>
        <path id="MicrosoftYaHei-1c" d="M 3181 4219 
Q 2803 4413 2391 4413 
Q 1763 4413 1381 3866 
Q 1000 3319 994 2372 
L 1009 2372 
Q 1353 3038 2106 3038 
Q 2734 3038 3109 2628 
Q 3484 2219 3484 1541 
Q 3484 831 3051 375 
Q 2619 -81 1947 -81 
Q 1209 -81 789 495 
Q 369 1072 369 2131 
Q 369 3413 920 4167 
Q 1472 4922 2372 4922 
Q 2888 4922 3181 4781 
L 3181 4219 
z
M 1031 1584 
Q 1031 1106 1286 765 
Q 1541 425 1963 425 
Q 2363 425 2613 719 
Q 2863 1013 2863 1475 
Q 2863 1975 2627 2253 
Q 2391 2531 1956 2531 
Q 1544 2531 1287 2250 
Q 1031 1969 1031 1584 
z
" transform="scale(0.015625)"/>
        <path id="MicrosoftYaHei-10" d="M 2663 3706 
L 1738 3525 
L 2384 2716 
L 1984 2441 
L 1466 3334 
L 941 2441 
L 541 2716 
L 1184 3525 
L 253 3706 
L 416 4156 
L 1297 3819 
L 1213 4841 
L 1716 4841 
L 1628 3819 
L 2509 4156 
L 2663 3706 
z
" transform="scale(0.015625)"/>
       </defs>
       <use xlink:href="#MicrosoftYaHei-18"/>
       <use xlink:href="#MicrosoftYaHei-16" transform="translate(58.640625 0)"/>
       <use xlink:href="#MicrosoftYaHei-18" transform="translate(117.28125 0)"/>
       <use xlink:href="#MicrosoftYaHei-1c" transform="translate(175.921875 0)"/>
       <use xlink:href="#MicrosoftYaHei-10" transform="translate(234.5625 0)"/>
      </g>
     </g>
    </g>
   </g>
   <g id="matplotlib.axis_2">
    <g id="ytick_1">
     <g id="line2d_7">
      <path d="M 74.88 332.64 
L 389.061818 332.64 
" clip-path="url(#p00b92adc9c)" style="fill: none; stroke: #b0b0b0; stroke-opacity: 0.2; stroke-width: 0.8; stroke-linecap: square"/>
     </g>
     <g id="line2d_8">
      <defs>
       <path id="me6b390f161" d="M 0 0 
L -3.5 0 
" style="stroke: #000000; stroke-width: 0.8"/>
      </defs>
      <g>
       <use xlink:href="#me6b390f161" x="74.88" y="332.64" style="stroke: #000000; stroke-width: 0.8"/>
      </g>
     </g>
     <g id="text_7">
      <!-- 20% -->
      <g transform="translate(47.255 336.700059) scale(0.1 -0.1)">
       <defs>
        <path id="MicrosoftYaHei-b" d="M 272 3619 
Q 272 4213 589 4563 
Q 906 4913 1444 4913 
Q 1959 4913 2248 4591 
Q 2538 4269 2538 3694 
Q 2538 3122 2219 2765 
Q 1900 2409 1372 2409 
Q 872 2409 572 2740 
Q 272 3072 272 3619 
z
M 753 3650 
Q 753 3247 928 3028 
Q 1103 2809 1406 2809 
Q 1719 2809 1889 3036 
Q 2059 3263 2059 3675 
Q 2059 4078 1892 4298 
Q 1725 4519 1422 4519 
Q 1113 4519 933 4289 
Q 753 4059 753 3650 
z
M 4647 4841 
L 1538 -31 
L 1016 -31 
L 4125 4841 
L 4647 4841 
z
M 3172 1134 
Q 3172 1728 3489 2083 
Q 3806 2438 4341 2438 
Q 4853 2438 5143 2114 
Q 5434 1791 5434 1203 
Q 5434 634 5112 279 
Q 4791 -75 4272 -75 
Q 3769 -75 3470 261 
Q 3172 597 3172 1134 
z
M 3650 1163 
Q 3650 769 3825 548 
Q 4000 328 4303 328 
Q 4616 328 4786 556 
Q 4956 784 4956 1194 
Q 4956 1600 4786 1815 
Q 4616 2031 4319 2031 
Q 4000 2031 3825 1801 
Q 3650 1572 3650 1163 
z
" transform="scale(0.015625)"/>
       </defs>
       <use xlink:href="#MicrosoftYaHei-18"/>
       <use xlink:href="#MicrosoftYaHei-16" transform="translate(58.640625 0)"/>
       <use xlink:href="#MicrosoftYaHei-b" transform="translate(117.28125 0)"/>
      </g>
     </g>
    </g>
    <g id="ytick_2">
     <g id="line2d_9">
      <path d="M 74.88 291.6 
L 389.061818 291.6 
" clip-path="url(#p00b92adc9c)" style="fill: none; stroke: #b0b0b0; stroke-opacity: 0.2; stroke-width: 0.8; stroke-linecap: square"/>
     </g>
     <g id="line2d_10">
      <g>
       <use xlink:href="#me6b390f161" x="74.88" y="291.6" style="stroke: #000000; stroke-width: 0.8"/>
      </g>
     </g>
     <g id="text_8">
      <!-- 30% -->
      <g transform="translate(47.255 295.660059) scale(0.1 -0.1)">
       <use xlink:href="#MicrosoftYaHei-19"/>
       <use xlink:href="#MicrosoftYaHei-16" transform="translate(58.640625 0)"/>
       <use xlink:href="#MicrosoftYaHei-b" transform="translate(117.28125 0)"/>
      </g>
     </g>
    </g>
    <g id="ytick_3">
     <g id="line2d_11">
      <path d="M 74.88 250.56 
L 389.061818 250.56 
" clip-path="url(#p00b92adc9c)" style="fill: none; stroke: #b0b0b0; stroke-opacity: 0.2; stroke-width: 0.8; stroke-linecap: square"/>
     </g>
     <g id="line2d_12">
      <g>
       <use xlink:href="#me6b390f161" x="74.88" y="250.56" style="stroke: #000000; stroke-width: 0.8"/>
      </g>
     </g>
     <g id="text_9">
      <!-- 40% -->
      <g transform="translate(47.255 254.620059) scale(0.1 -0.1)">
       <use xlink:href="#MicrosoftYaHei-1a"/>
       <use xlink:href="#MicrosoftYaHei-16" transform="translate(58.640625 0)"/>
       <use xlink:href="#MicrosoftYaHei-b" transform="translate(117.28125 0)"/>
      </g>
     </g>
    </g>
    <g id="ytick_4">
     <g id="line2d_13">
      <path d="M 74.88 209.52 
L 389.061818 209.52 
" clip-path="url(#p00b92adc9c)" style="fill: none; stroke: #b0b0b0; stroke-opacity: 0.2; stroke-width: 0.8; stroke-linecap: square"/>
     </g>
     <g id="line2d_14">
      <g>
       <use xlink:href="#me6b390f161" x="74.88" y="209.52" style="stroke: #000000; stroke-width: 0.8"/>
      </g>
     </g>
     <g id="text_10">
      <!-- 50% -->
      <g transform="translate(47.255 213.580059) scale(0.1 -0.1)">
       <use xlink:href="#MicrosoftYaHei-1b"/>
       <use xlink:href="#MicrosoftYaHei-16" transform="translate(58.640625 0)"/>
       <use xlink:href="#MicrosoftYaHei-b" transform="translate(117.28125 0)"/>
      </g>
     </g>
    </g>
    <g id="ytick_5">
     <g id="line2d_15">
      <path d="M 74.88 168.48 
L 389.061818 168.48 
" clip-path="url(#p00b92adc9c)" style="fill: none; stroke: #b0b0b0; stroke-opacity: 0.2; stroke-width: 0.8; stroke-linecap: square"/>
     </g>
     <g id="line2d_16">
      <g>
       <use xlink:href="#me6b390f161" x="74.88" y="168.48" style="stroke: #000000; stroke-width: 0.8"/>
      </g>
     </g>
     <g id="text_11">
      <!-- 60% -->
      <g transform="translate(47.255 172.540059) scale(0.1 -0.1)">
       <use xlink:href="#MicrosoftYaHei-1c"/>
       <use xlink:href="#MicrosoftYaHei-16" transform="translate(58.640625 0)"/>
       <use xlink:href="#MicrosoftYaHei-b" transform="translate(117.28125 0)"/>
      </g>
     </g>
    </g>
    <g id="ytick_6">
     <g id="line2d_17">
      <path d="M 74.88 127.44 
L 389.061818 127.44 
" clip-path="url(#p00b92adc9c)" style="fill: none; stroke: #b0b0b0; stroke-opacity: 0.2; stroke-width: 0.8; stroke-linecap: square"/>
     </g>
     <g id="line2d_18">
      <g>
       <use xlink:href="#me6b390f161" x="74.88" y="127.44" style="stroke: #000000; stroke-width: 0.8"/>
      </g>
     </g>
     <g id="text_12">
      <!-- 70% -->
      <g transform="translate(47.255 131.500059) scale(0.1 -0.1)">
       <defs>
        <path id="MicrosoftYaHei-1d" d="M 3422 4463 
Q 2659 3131 2223 1998 
Q 1788 866 1684 0 
L 1047 0 
Q 1163 853 1594 1947 
Q 2025 3041 2747 4300 
L 347 4300 
L 347 4841 
L 3422 4841 
L 3422 4463 
z
" transform="scale(0.015625)"/>
       </defs>
       <use xlink:href="#MicrosoftYaHei-1d"/>
       <use xlink:href="#MicrosoftYaHei-16" transform="translate(58.640625 0)"/>
       <use xlink:href="#MicrosoftYaHei-b" transform="translate(117.28125 0)"/>
      </g>
     </g>
    </g>
    <g id="ytick_7">
     <g id="line2d_19">
      <path d="M 74.88 86.4 
L 389.061818 86.4 
" clip-path="url(#p00b92adc9c)" style="fill: none; stroke: #b0b0b0; stroke-opacity: 0.2; stroke-width: 0.8; stroke-linecap: square"/>
     </g>
     <g id="line2d_20">
      <g>
       <use xlink:href="#me6b390f161" x="74.88" y="86.4" style="stroke: #000000; stroke-width: 0.8"/>
      </g>
     </g>
     <g id="text_13">
      <!-- 80% -->
      <g transform="translate(47.255 90.460059) scale(0.1 -0.1)">
       <defs>
        <path id="MicrosoftYaHei-1e" d="M 306 1350 
Q 306 1769 556 2122 
Q 806 2475 1200 2625 
Q 884 2803 700 3081 
Q 516 3359 516 3684 
Q 516 4028 692 4312 
Q 869 4597 1183 4759 
Q 1497 4922 1875 4922 
Q 2256 4922 2572 4761 
Q 2888 4600 3063 4315 
Q 3238 4031 3238 3684 
Q 3238 3366 3058 3086 
Q 2878 2806 2559 2625 
Q 2953 2472 3200 2119 
Q 3447 1766 3447 1350 
Q 3447 938 3250 611 
Q 3053 284 2690 103 
Q 2328 -78 1875 -78 
Q 1425 -78 1065 103 
Q 706 284 506 612 
Q 306 941 306 1350 
z
M 906 1378 
Q 906 947 1172 687 
Q 1438 428 1878 428 
Q 2309 428 2582 692 
Q 2856 956 2856 1378 
Q 2856 1778 2579 2051 
Q 2303 2325 1878 2325 
Q 1456 2325 1181 2058 
Q 906 1791 906 1378 
z
M 1081 3634 
Q 1081 3309 1312 3076 
Q 1544 2844 1878 2844 
Q 2206 2844 2445 3078 
Q 2684 3313 2684 3634 
Q 2684 3963 2454 4191 
Q 2225 4419 1878 4419 
Q 1534 4419 1307 4195 
Q 1081 3972 1081 3634 
z
" transform="scale(0.015625)"/>
       </defs>
       <use xlink:href="#MicrosoftYaHei-1e"/>
       <use xlink:href="#MicrosoftYaHei-16" transform="translate(58.640625 0)"/>
       <use xlink:href="#MicrosoftYaHei-b" transform="translate(117.28125 0)"/>
      </g>
     </g>
    </g>
    <g id="text_14">
     <!-- 方向准确率 -->
     <g transform="translate(40.72082 234.52) rotate(-90) scale(0.1 -0.1)">
      <defs>
       <path id="MicrosoftYaHei-790" d="M 194 4241 
L 3194 4241 
Q 2878 4841 2700 5116 
L 3188 5347 
Q 3363 5078 3713 4472 
L 3256 4241 
L 6219 4241 
L 6219 3766 
L 2428 3766 
Q 2406 3197 2381 2797 
L 5400 2797 
Q 5325 1441 5238 441 
Q 5169 -691 4138 -691 
Q 3663 -691 2869 -641 
Q 2838 -403 2775 -66 
Q 3569 -172 4063 -172 
Q 4638 -172 4706 509 
Q 4781 1253 4838 2328 
L 2347 2328 
Q 2172 266 438 -872 
Q 269 -672 56 -447 
Q 1706 641 1825 2466 
Q 1869 2959 1897 3766 
L 194 3766 
L 194 4241 
z
" transform="scale(0.015625)"/>
       <path id="MicrosoftYaHei-567" d="M 1038 -772 
L 550 -772 
L 550 4359 
L 2394 4359 
Q 2550 4822 2694 5328 
L 3231 5178 
Q 3069 4741 2913 4359 
L 5838 4359 
L 5838 -34 
Q 5838 -741 5131 -741 
Q 4738 -741 4181 -728 
Q 4150 -509 4094 -241 
Q 4631 -284 5006 -284 
Q 5350 -284 5350 78 
L 5350 3897 
L 1038 3897 
L 1038 -772 
z
M 1894 2997 
L 4481 2997 
L 4481 803 
L 2369 803 
L 2369 372 
L 1894 372 
L 1894 2997 
z
M 4006 2547 
L 2369 2547 
L 2369 1253 
L 4006 1253 
L 4006 2547 
z
" transform="scale(0.015625)"/>
       <path id="MicrosoftYaHei-4d5" d="M 1413 2766 
Q 2313 3866 2869 5334 
L 3331 5172 
Q 3128 4694 2906 4253 
L 6194 4253 
L 6194 3822 
L 4675 3822 
L 4675 2891 
L 6025 2891 
L 6025 2459 
L 4675 2459 
L 4675 1528 
L 6038 1528 
L 6038 1097 
L 4675 1097 
L 4675 78 
L 6275 78 
L 6275 -341 
L 2769 -341 
L 2769 -841 
L 2281 -841 
L 2281 3131 
Q 2034 2738 1769 2384 
Q 1631 2578 1413 2766 
z
M 2769 78 
L 4188 78 
L 4188 1097 
L 2769 1097 
L 2769 78 
z
M 1081 2422 
Q 1325 2291 1556 2209 
Q 1113 916 681 -372 
L 169 -141 
Q 650 1003 1081 2422 
z
M 2769 1528 
L 4188 1528 
L 4188 2459 
L 2769 2459 
L 2769 1528 
z
M 2769 2891 
L 4188 2891 
L 4188 3822 
L 2769 3822 
L 2769 2891 
z
M 531 4991 
Q 1050 4384 1581 3709 
Q 1538 3678 1150 3341 
Q 681 3997 138 4672 
L 531 4991 
z
M 3919 5116 
L 4325 5372 
Q 4569 5072 4881 4622 
L 4450 4334 
Q 4156 4784 3919 5116 
z
" transform="scale(0.015625)"/>
       <path id="MicrosoftYaHei-947" d="M 2075 3453 
Q 2956 4334 3456 5359 
L 3931 5272 
Q 3781 4991 3619 4722 
L 5438 4722 
L 5438 4328 
L 4909 3666 
L 6063 3666 
L 6063 -53 
Q 6063 -728 5475 -728 
Q 5144 -728 4906 -716 
Q 4869 -497 4813 -259 
Q 5156 -291 5331 -291 
Q 5619 -291 5619 16 
L 5619 734 
L 4588 734 
L 4588 -659 
L 4144 -659 
L 4144 734 
L 3113 734 
Q 2944 -263 2444 -884 
Q 2288 -703 2081 -509 
Q 2756 291 2756 1841 
L 2756 3506 
Q 2597 3316 2431 3134 
Q 2281 3278 2075 3453 
z
M 31 1691 
Q 741 2834 1066 4291 
L 231 4291 
L 231 4716 
L 2469 4716 
L 2469 4291 
L 1509 4291 
Q 1356 3613 1128 2991 
L 2200 2991 
L 2200 128 
L 1150 128 
L 1150 -347 
L 738 -347 
L 738 2059 
Q 559 1691 350 1347 
Q 225 1497 31 1691 
z
M 1788 541 
L 1788 2578 
L 1150 2578 
L 1150 541 
L 1788 541 
z
M 4875 4322 
L 3366 4322 
Q 3138 3981 2884 3666 
L 4384 3666 
L 4875 4322 
z
M 4588 1134 
L 5619 1134 
L 5619 1991 
L 4588 1991 
L 4588 1134 
z
M 5619 3241 
L 4588 3241 
L 4588 2391 
L 5619 2391 
L 5619 3241 
z
M 3166 1134 
L 4144 1134 
L 4144 1991 
L 3200 1991 
Q 3200 1841 3166 1134 
z
M 3200 2391 
L 4144 2391 
L 4144 3241 
L 3200 3241 
L 3200 2391 
z
" transform="scale(0.015625)"/>
       <path id="MicrosoftYaHei-8e4" d="M 2525 2009 
Q 2622 2016 3928 2081 
Q 3772 2300 3625 2491 
L 3963 2703 
Q 4413 2203 4794 1653 
L 4394 1403 
Q 4284 1569 4178 1725 
Q 2991 1659 2213 1597 
Q 2075 1584 1881 1541 
L 1725 1966 
Q 1913 2028 2006 2084 
Q 2534 2441 3050 2913 
Q 2597 2894 2275 2866 
Q 2144 2847 1988 2809 
L 1800 3191 
Q 1956 3247 2088 3366 
Q 2509 3722 2875 4228 
L 231 4228 
L 231 4666 
L 3031 4666 
Q 2878 4944 2744 5153 
L 3194 5372 
Q 3438 5000 3616 4666 
L 6175 4666 
L 6175 4228 
L 3053 4228 
L 3350 4072 
Q 2844 3553 2494 3247 
Q 2850 3256 3425 3269 
Q 3675 3519 3925 3797 
L 4356 3547 
Q 3363 2603 2525 2009 
z
M 144 991 
L 2994 991 
L 2994 1541 
L 3488 1541 
L 3488 991 
L 6275 991 
L 6275 553 
L 3488 553 
L 3488 -853 
L 2994 -853 
L 2994 553 
L 144 553 
L 144 991 
z
M 1719 2672 
L 1944 2303 
Q 1200 1866 425 1409 
L 163 1828 
Q 813 2134 1719 2672 
z
M 4856 2678 
Q 5750 2172 6250 1816 
L 5975 1409 
Q 5331 1909 4600 2341 
L 4856 2678 
z
M 5994 3591 
Q 5519 3178 4963 2809 
L 4644 3141 
Q 5244 3534 5638 3928 
L 5994 3591 
z
M 363 3634 
L 681 3941 
Q 1200 3528 1588 3159 
L 1238 2816 
Q 875 3197 363 3634 
z
" transform="scale(0.015625)"/>
      </defs>
      <use xlink:href="#MicrosoftYaHei-790"/>
      <use xlink:href="#MicrosoftYaHei-567" transform="translate(100 0)"/>
      <use xlink:href="#MicrosoftYaHei-4d5" transform="translate(200 0)"/>
      <use xlink:href="#MicrosoftYaHei-947" transform="translate(300 0)"/>
      <use xlink:href="#MicrosoftYaHei-8e4" transform="translate(400 0)"/>
     </g>
    </g>
   </g>
   <g id="line2d_21">
    <path d="M 89.160992 176.688 
L 146.284959 238.834286 
L 203.408926 235.17 
L 260.532893 117.834894 
L 317.65686 226.62 
L 374.780826 250.56 
" clip-path="url(#p00b92adc9c)" style="fill: none; stroke: #333333; stroke-width: 2; stroke-linecap: square"/>
    <defs>
     <path id="m9f27995ba1" d="M 0 3 
C 0.795609 3 1.55874 2.683901 2.12132 2.12132 
C 2.683901 1.55874 3 0.795609 3 0 
C 3 -0.795609 2.683901 -1.55874 2.12132 -2.12132 
C 1.55874 -2.683901 0.795609 -3 0 -3 
C -0.795609 -3 -1.55874 -2.683901 -2.12132 -2.12132 
C -2.683901 -1.55874 -3 -0.795609 -3 0 
C -3 0.795609 -2.683901 1.55874 -2.12132 2.12132 
C -1.55874 2.683901 -0.795609 3 0 3 
z
" style="stroke: #333333"/>
    </defs>
    <g clip-path="url(#p00b92adc9c)">
     <use xlink:href="#m9f27995ba1" x="89.160992" y="176.688" style="fill: #333333; stroke: #333333"/>
     <use xlink:href="#m9f27995ba1" x="146.284959" y="238.834286" style="fill: #333333; stroke: #333333"/>
     <use xlink:href="#m9f27995ba1" x="203.408926" y="235.17" style="fill: #333333; stroke: #333333"/>
     <use xlink:href="#m9f27995ba1" x="260.532893" y="117.834894" style="fill: #333333; stroke: #333333"/>
     <use xlink:href="#m9f27995ba1" x="317.65686" y="226.62" style="fill: #333333; stroke: #333333"/>
     <use xlink:href="#m9f27995ba1" x="374.780826" y="250.56" style="fill: #333333; stroke: #333333"/>
    </g>
   </g>
   <g id="line2d_22">
    <path d="M 89.160992 176.688 
L 146.284959 272.336327 
L 203.408926 235.17 
L 260.532893 126.566809 
L 317.65686 218.07 
L 374.780826 250.56 
" clip-path="url(#p00b92adc9c)" style="fill: none; stroke: #0077bb; stroke-width: 2; stroke-linecap: square"/>
    <defs>
     <path id="m23e560d1e1" d="M 0 3 
C 0.795609 3 1.55874 2.683901 2.12132 2.12132 
C 2.683901 1.55874 3 0.795609 3 0 
C 3 -0.795609 2.683901 -1.55874 2.12132 -2.12132 
C 1.55874 -2.683901 0.795609 -3 0 -3 
C -0.795609 -3 -1.55874 -2.683901 -2.12132 -2.12132 
C -2.683901 -1.55874 -3 -0.795609 -3 0 
C -3 0.795609 -2.683901 1.55874 -2.12132 2.12132 
C -1.55874 2.683901 -0.795609 3 0 3 
z
" style="stroke: #0077bb"/>
    </defs>
    <g clip-path="url(#p00b92adc9c)">
     <use xlink:href="#m23e560d1e1" x="89.160992" y="176.688" style="fill: #0077bb; stroke: #0077bb"/>
     <use xlink:href="#m23e560d1e1" x="146.284959" y="272.336327" style="fill: #0077bb; stroke: #0077bb"/>
     <use xlink:href="#m23e560d1e1" x="203.408926" y="235.17" style="fill: #0077bb; stroke: #0077bb"/>
     <use xlink:href="#m23e560d1e1" x="260.532893" y="126.566809" style="fill: #0077bb; stroke: #0077bb"/>
     <use xlink:href="#m23e560d1e1" x="317.65686" y="218.07" style="fill: #0077bb; stroke: #0077bb"/>
     <use xlink:href="#m23e560d1e1" x="374.780826" y="250.56" style="fill: #0077bb; stroke: #0077bb"/>
    </g>
   </g>
   <g id="line2d_23">
    <path d="M 89.160992 193.104 
L 146.284959 263.960816 
L 203.408926 235.17 
L 260.532893 117.834894 
L 317.65686 209.52 
L 374.780826 250.56 
" clip-path="url(#p00b92adc9c)" style="fill: none; stroke: #ee7733; stroke-width: 2; stroke-linecap: square"/>
    <defs>
     <path id="m63a606cffe" d="M 0 3 
C 0.795609 3 1.55874 2.683901 2.12132 2.12132 
C 2.683901 1.55874 3 0.795609 3 0 
C 3 -0.795609 2.683901 -1.55874 2.12132 -2.12132 
C 1.55874 -2.683901 0.795609 -3 0 -3 
C -0.795609 -3 -1.55874 -2.683901 -2.12132 -2.12132 
C -2.683901 -1.55874 -3 -0.795609 -3 0 
C -3 0.795609 -2.683901 1.55874 -2.12132 2.12132 
C -1.55874 2.683901 -0.795609 3 0 3 
z
" style="stroke: #ee7733"/>
    </defs>
    <g clip-path="url(#p00b92adc9c)">
     <use xlink:href="#m63a606cffe" x="89.160992" y="193.104" style="fill: #ee7733; stroke: #ee7733"/>
     <use xlink:href="#m63a606cffe" x="146.284959" y="263.960816" style="fill: #ee7733; stroke: #ee7733"/>
     <use xlink:href="#m63a606cffe" x="203.408926" y="235.17" style="fill: #ee7733; stroke: #ee7733"/>
     <use xlink:href="#m63a606cffe" x="260.532893" y="117.834894" style="fill: #ee7733; stroke: #ee7733"/>
     <use xlink:href="#m63a606cffe" x="317.65686" y="209.52" style="fill: #ee7733; stroke: #ee7733"/>
     <use xlink:href="#m63a606cffe" x="374.780826" y="250.56" style="fill: #ee7733; stroke: #ee7733"/>
    </g>
   </g>
   <g id="line2d_24">
    <path d="M 89.160992 176.688 
L 146.284959 263.960816 
L 203.408926 235.17 
L 260.532893 126.566809 
L 317.65686 218.07 
L 374.780826 250.56 
" clip-path="url(#p00b92adc9c)" style="fill: none; stroke: #aa4499; stroke-width: 2; stroke-linecap: square"/>
    <defs>
     <path id="m9b4cd3a8cb" d="M 0 3 
C 0.795609 3 1.55874 2.683901 2.12132 2.12132 
C 2.683901 1.55874 3 0.795609 3 0 
C 3 -0.795609 2.683901 -1.55874 2.12132 -2.12132 
C 1.55874 -2.683901 0.795609 -3 0 -3 
C -0.795609 -3 -1.55874 -2.683901 -2.12132 -2.12132 
C -2.683901 -1.55874 -3 -0.795609 -3 0 
C -3 0.795609 -2.683901 1.55874 -2.12132 2.12132 
C -1.55874 2.683901 -0.795609 3 0 3 
z
" style="stroke: #aa4499"/>
    </defs>
    <g clip-path="url(#p00b92adc9c)">
     <use xlink:href="#m9b4cd3a8cb" x="89.160992" y="176.688" style="fill: #aa4499; stroke: #aa4499"/>
     <use xlink:href="#m9b4cd3a8cb" x="146.284959" y="263.960816" style="fill: #aa4499; stroke: #aa4499"/>
     <use xlink:href="#m9b4cd3a8cb" x="203.408926" y="235.17" style="fill: #aa4499; stroke: #aa4499"/>
     <use xlink:href="#m9b4cd3a8cb" x="260.532893" y="126.566809" style="fill: #aa4499; stroke: #aa4499"/>
     <use xlink:href="#m9b4cd3a8cb" x="317.65686" y="218.07" style="fill: #aa4499; stroke: #aa4499"/>
     <use xlink:href="#m9b4cd3a8cb" x="374.780826" y="250.56" style="fill: #aa4499; stroke: #aa4499"/>
    </g>
   </g>
   <g id="patch_3">
    <path d="M 74.88 332.64 
L 74.88 86.4 
" style="fill: none; stroke: #000000; stroke-width: 0.8; stroke-linejoin: miter; stroke-linecap: square"/>
   </g>
   <g id="patch_4">
    <path d="M 74.88 332.64 
L 389.061818 332.64 
" style="fill: none; stroke: #000000; stroke-width: 0.8; stroke-linejoin: miter; stroke-linecap: square"/>
   </g>
   <g id="text_15">
    <!-- R19 -->
    <g transform="translate(221.017159 80.4) scale(0.12 -0.12)">
     <defs>
      <path id="MicrosoftYaHei-38" d="M 4159 0 
L 3422 0 
L 2619 1344 
Q 2378 1747 2178 1892 
Q 1978 2038 1700 2038 
L 1250 2038 
L 1250 0 
L 625 0 
L 625 4841 
L 2100 4841 
Q 2806 4841 3206 4500 
Q 3606 4159 3606 3547 
Q 3606 2541 2531 2241 
L 2531 2225 
Q 2731 2141 2876 1984 
Q 3022 1828 3253 1450 
L 4159 0 
z
M 1250 4294 
L 1250 2584 
L 1988 2584 
Q 2416 2584 2683 2834 
Q 2950 3084 2950 3491 
Q 2950 3869 2706 4081 
Q 2463 4294 1997 4294 
L 1250 4294 
z
" transform="scale(0.015625)"/>
      <path id="MicrosoftYaHei-1f" d="M 578 656 
Q 978 425 1441 425 
Q 2091 425 2448 937 
Q 2806 1450 2806 2394 
Q 2800 2388 2794 2394 
Q 2475 1788 1722 1788 
Q 1113 1788 713 2206 
Q 313 2625 313 3294 
Q 313 4006 750 4464 
Q 1188 4922 1884 4922 
Q 2606 4922 3012 4355 
Q 3419 3788 3419 2703 
Q 3419 1363 2894 641 
Q 2369 -81 1441 -81 
Q 931 -81 578 84 
L 578 656 
z
M 931 3372 
Q 931 2884 1181 2598 
Q 1431 2313 1872 2313 
Q 2253 2313 2512 2573 
Q 2772 2834 2772 3206 
Q 2772 3728 2514 4070 
Q 2256 4413 1834 4413 
Q 1444 4413 1187 4116 
Q 931 3819 931 3372 
z
" transform="scale(0.015625)"/>
     </defs>
     <use xlink:href="#MicrosoftYaHei-38"/>
     <use xlink:href="#MicrosoftYaHei-17" transform="translate(65.28125 0)"/>
     <use xlink:href="#MicrosoftYaHei-1f" transform="translate(123.921875 0)"/>
    </g>
   </g>
  </g>
  <g id="axes_2">
   <g id="patch_5">
    <path d="M 436.189091 332.64 
L 750.370909 332.64 
L 750.370909 86.4 
L 436.189091 86.4 
z
" style="fill: #ffffff"/>
   </g>
   <g id="matplotlib.axis_3">
    <g id="xtick_7">
     <g id="line2d_25">
      <g>
       <use xlink:href="#m17f3399128" x="450.470083" y="332.64" style="stroke: #000000; stroke-width: 0.8"/>
      </g>
     </g>
     <g id="text_16">
      <!-- 2021 -->
      <g transform="translate(440.404502 355.292924) rotate(-20) scale(0.1 -0.1)">
       <use xlink:href="#MicrosoftYaHei-18"/>
       <use xlink:href="#MicrosoftYaHei-16" transform="translate(58.640625 0)"/>
       <use xlink:href="#MicrosoftYaHei-18" transform="translate(117.28125 0)"/>
       <use xlink:href="#MicrosoftYaHei-17" transform="translate(175.921875 0)"/>
      </g>
     </g>
    </g>
    <g id="xtick_8">
     <g id="line2d_26">
      <g>
       <use xlink:href="#m17f3399128" x="507.59405" y="332.64" style="stroke: #000000; stroke-width: 0.8"/>
      </g>
     </g>
     <g id="text_17">
      <!-- 2022 -->
      <g transform="translate(497.528469 355.292924) rotate(-20) scale(0.1 -0.1)">
       <use xlink:href="#MicrosoftYaHei-18"/>
       <use xlink:href="#MicrosoftYaHei-16" transform="translate(58.640625 0)"/>
       <use xlink:href="#MicrosoftYaHei-18" transform="translate(117.28125 0)"/>
       <use xlink:href="#MicrosoftYaHei-18" transform="translate(175.921875 0)"/>
      </g>
     </g>
    </g>
    <g id="xtick_9">
     <g id="line2d_27">
      <g>
       <use xlink:href="#m17f3399128" x="564.718017" y="332.64" style="stroke: #000000; stroke-width: 0.8"/>
      </g>
     </g>
     <g id="text_18">
      <!-- 2023 -->
      <g transform="translate(554.652436 355.292924) rotate(-20) scale(0.1 -0.1)">
       <use xlink:href="#MicrosoftYaHei-18"/>
       <use xlink:href="#MicrosoftYaHei-16" transform="translate(58.640625 0)"/>
       <use xlink:href="#MicrosoftYaHei-18" transform="translate(117.28125 0)"/>
       <use xlink:href="#MicrosoftYaHei-19" transform="translate(175.921875 0)"/>
      </g>
     </g>
    </g>
    <g id="xtick_10">
     <g id="line2d_28">
      <g>
       <use xlink:href="#m17f3399128" x="621.841983" y="332.64" style="stroke: #000000; stroke-width: 0.8"/>
      </g>
     </g>
     <g id="text_19">
      <!-- 2024 -->
      <g transform="translate(611.776403 355.292924) rotate(-20) scale(0.1 -0.1)">
       <use xlink:href="#MicrosoftYaHei-18"/>
       <use xlink:href="#MicrosoftYaHei-16" transform="translate(58.640625 0)"/>
       <use xlink:href="#MicrosoftYaHei-18" transform="translate(117.28125 0)"/>
       <use xlink:href="#MicrosoftYaHei-1a" transform="translate(175.921875 0)"/>
      </g>
     </g>
    </g>
    <g id="xtick_11">
     <g id="line2d_29">
      <g>
       <use xlink:href="#m17f3399128" x="678.96595" y="332.64" style="stroke: #000000; stroke-width: 0.8"/>
      </g>
     </g>
     <g id="text_20">
      <!-- 2025 -->
      <g transform="translate(668.900369 355.292924) rotate(-20) scale(0.1 -0.1)">
       <use xlink:href="#MicrosoftYaHei-18"/>
       <use xlink:href="#MicrosoftYaHei-16" transform="translate(58.640625 0)"/>
       <use xlink:href="#MicrosoftYaHei-18" transform="translate(117.28125 0)"/>
       <use xlink:href="#MicrosoftYaHei-1b" transform="translate(175.921875 0)"/>
      </g>
     </g>
    </g>
    <g id="xtick_12">
     <g id="line2d_30">
      <g>
       <use xlink:href="#m17f3399128" x="736.089917" y="332.64" style="stroke: #000000; stroke-width: 0.8"/>
      </g>
     </g>
     <g id="text_21">
      <!-- 2026* -->
      <g transform="translate(723.885802 356.84965) rotate(-20) scale(0.1 -0.1)">
       <use xlink:href="#MicrosoftYaHei-18"/>
       <use xlink:href="#MicrosoftYaHei-16" transform="translate(58.640625 0)"/>
       <use xlink:href="#MicrosoftYaHei-18" transform="translate(117.28125 0)"/>
       <use xlink:href="#MicrosoftYaHei-1c" transform="translate(175.921875 0)"/>
       <use xlink:href="#MicrosoftYaHei-10" transform="translate(234.5625 0)"/>
      </g>
     </g>
    </g>
   </g>
   <g id="matplotlib.axis_4">
    <g id="ytick_8">
     <g id="line2d_31">
      <path d="M 436.189091 332.64 
L 750.370909 332.64 
" clip-path="url(#p66ace1c3a9)" style="fill: none; stroke: #b0b0b0; stroke-opacity: 0.2; stroke-width: 0.8; stroke-linecap: square"/>
     </g>
     <g id="line2d_32">
      <g>
       <use xlink:href="#me6b390f161" x="436.189091" y="332.64" style="stroke: #000000; stroke-width: 0.8"/>
      </g>
     </g>
    </g>
    <g id="ytick_9">
     <g id="line2d_33">
      <path d="M 436.189091 291.6 
L 750.370909 291.6 
" clip-path="url(#p66ace1c3a9)" style="fill: none; stroke: #b0b0b0; stroke-opacity: 0.2; stroke-width: 0.8; stroke-linecap: square"/>
     </g>
     <g id="line2d_34">
      <g>
       <use xlink:href="#me6b390f161" x="436.189091" y="291.6" style="stroke: #000000; stroke-width: 0.8"/>
      </g>
     </g>
    </g>
    <g id="ytick_10">
     <g id="line2d_35">
      <path d="M 436.189091 250.56 
L 750.370909 250.56 
" clip-path="url(#p66ace1c3a9)" style="fill: none; stroke: #b0b0b0; stroke-opacity: 0.2; stroke-width: 0.8; stroke-linecap: square"/>
     </g>
     <g id="line2d_36">
      <g>
       <use xlink:href="#me6b390f161" x="436.189091" y="250.56" style="stroke: #000000; stroke-width: 0.8"/>
      </g>
     </g>
    </g>
    <g id="ytick_11">
     <g id="line2d_37">
      <path d="M 436.189091 209.52 
L 750.370909 209.52 
" clip-path="url(#p66ace1c3a9)" style="fill: none; stroke: #b0b0b0; stroke-opacity: 0.2; stroke-width: 0.8; stroke-linecap: square"/>
     </g>
     <g id="line2d_38">
      <g>
       <use xlink:href="#me6b390f161" x="436.189091" y="209.52" style="stroke: #000000; stroke-width: 0.8"/>
      </g>
     </g>
    </g>
    <g id="ytick_12">
     <g id="line2d_39">
      <path d="M 436.189091 168.48 
L 750.370909 168.48 
" clip-path="url(#p66ace1c3a9)" style="fill: none; stroke: #b0b0b0; stroke-opacity: 0.2; stroke-width: 0.8; stroke-linecap: square"/>
     </g>
     <g id="line2d_40">
      <g>
       <use xlink:href="#me6b390f161" x="436.189091" y="168.48" style="stroke: #000000; stroke-width: 0.8"/>
      </g>
     </g>
    </g>
    <g id="ytick_13">
     <g id="line2d_41">
      <path d="M 436.189091 127.44 
L 750.370909 127.44 
" clip-path="url(#p66ace1c3a9)" style="fill: none; stroke: #b0b0b0; stroke-opacity: 0.2; stroke-width: 0.8; stroke-linecap: square"/>
     </g>
     <g id="line2d_42">
      <g>
       <use xlink:href="#me6b390f161" x="436.189091" y="127.44" style="stroke: #000000; stroke-width: 0.8"/>
      </g>
     </g>
    </g>
    <g id="ytick_14">
     <g id="line2d_43">
      <path d="M 436.189091 86.4 
L 750.370909 86.4 
" clip-path="url(#p66ace1c3a9)" style="fill: none; stroke: #b0b0b0; stroke-opacity: 0.2; stroke-width: 0.8; stroke-linecap: square"/>
     </g>
     <g id="line2d_44">
      <g>
       <use xlink:href="#me6b390f161" x="436.189091" y="86.4" style="stroke: #000000; stroke-width: 0.8"/>
      </g>
     </g>
    </g>
   </g>
   <g id="line2d_45">
    <path d="M 450.470083 176.688 
L 507.59405 255.585306 
L 564.718017 243.72 
L 621.841983 126.566809 
L 678.96595 218.07 
L 736.089917 195.84 
" clip-path="url(#p66ace1c3a9)" style="fill: none; stroke: #333333; stroke-width: 2; stroke-linecap: square"/>
    <g clip-path="url(#p66ace1c3a9)">
     <use xlink:href="#m9f27995ba1" x="450.470083" y="176.688" style="fill: #333333; stroke: #333333"/>
     <use xlink:href="#m9f27995ba1" x="507.59405" y="255.585306" style="fill: #333333; stroke: #333333"/>
     <use xlink:href="#m9f27995ba1" x="564.718017" y="243.72" style="fill: #333333; stroke: #333333"/>
     <use xlink:href="#m9f27995ba1" x="621.841983" y="126.566809" style="fill: #333333; stroke: #333333"/>
     <use xlink:href="#m9f27995ba1" x="678.96595" y="218.07" style="fill: #333333; stroke: #333333"/>
     <use xlink:href="#m9f27995ba1" x="736.089917" y="195.84" style="fill: #333333; stroke: #333333"/>
    </g>
   </g>
   <g id="line2d_46">
    <path d="M 450.470083 176.688 
L 507.59405 280.711837 
L 564.718017 243.72 
L 621.841983 126.566809 
L 678.96595 200.97 
L 736.089917 236.88 
" clip-path="url(#p66ace1c3a9)" style="fill: none; stroke: #0077bb; stroke-width: 2; stroke-linecap: square"/>
    <g clip-path="url(#p66ace1c3a9)">
     <use xlink:href="#m23e560d1e1" x="450.470083" y="176.688" style="fill: #0077bb; stroke: #0077bb"/>
     <use xlink:href="#m23e560d1e1" x="507.59405" y="280.711837" style="fill: #0077bb; stroke: #0077bb"/>
     <use xlink:href="#m23e560d1e1" x="564.718017" y="243.72" style="fill: #0077bb; stroke: #0077bb"/>
     <use xlink:href="#m23e560d1e1" x="621.841983" y="126.566809" style="fill: #0077bb; stroke: #0077bb"/>
     <use xlink:href="#m23e560d1e1" x="678.96595" y="200.97" style="fill: #0077bb; stroke: #0077bb"/>
     <use xlink:href="#m23e560d1e1" x="736.089917" y="236.88" style="fill: #0077bb; stroke: #0077bb"/>
    </g>
   </g>
   <g id="line2d_47">
    <path d="M 450.470083 193.104 
L 507.59405 272.336327 
L 564.718017 235.17 
L 621.841983 126.566809 
L 678.96595 200.97 
L 736.089917 223.2 
" clip-path="url(#p66ace1c3a9)" style="fill: none; stroke: #ee7733; stroke-width: 2; stroke-linecap: square"/>
    <g clip-path="url(#p66ace1c3a9)">
     <use xlink:href="#m63a606cffe" x="450.470083" y="193.104" style="fill: #ee7733; stroke: #ee7733"/>
     <use xlink:href="#m63a606cffe" x="507.59405" y="272.336327" style="fill: #ee7733; stroke: #ee7733"/>
     <use xlink:href="#m63a606cffe" x="564.718017" y="235.17" style="fill: #ee7733; stroke: #ee7733"/>
     <use xlink:href="#m63a606cffe" x="621.841983" y="126.566809" style="fill: #ee7733; stroke: #ee7733"/>
     <use xlink:href="#m63a606cffe" x="678.96595" y="200.97" style="fill: #ee7733; stroke: #ee7733"/>
     <use xlink:href="#m63a606cffe" x="736.089917" y="223.2" style="fill: #ee7733; stroke: #ee7733"/>
    </g>
   </g>
   <g id="line2d_48">
    <path d="M 450.470083 176.688 
L 507.59405 272.336327 
L 564.718017 252.27 
L 621.841983 126.566809 
L 678.96595 209.52 
L 736.089917 236.88 
" clip-path="url(#p66ace1c3a9)" style="fill: none; stroke: #aa4499; stroke-width: 2; stroke-linecap: square"/>
    <g clip-path="url(#p66ace1c3a9)">
     <use xlink:href="#m9b4cd3a8cb" x="450.470083" y="176.688" style="fill: #aa4499; stroke: #aa4499"/>
     <use xlink:href="#m9b4cd3a8cb" x="507.59405" y="272.336327" style="fill: #aa4499; stroke: #aa4499"/>
     <use xlink:href="#m9b4cd3a8cb" x="564.718017" y="252.27" style="fill: #aa4499; stroke: #aa4499"/>
     <use xlink:href="#m9b4cd3a8cb" x="621.841983" y="126.566809" style="fill: #aa4499; stroke: #aa4499"/>
     <use xlink:href="#m9b4cd3a8cb" x="678.96595" y="209.52" style="fill: #aa4499; stroke: #aa4499"/>
     <use xlink:href="#m9b4cd3a8cb" x="736.089917" y="236.88" style="fill: #aa4499; stroke: #aa4499"/>
    </g>
   </g>
   <g id="patch_6">
    <path d="M 436.189091 332.64 
L 436.189091 86.4 
" style="fill: none; stroke: #000000; stroke-width: 0.8; stroke-linejoin: miter; stroke-linecap: square"/>
   </g>
   <g id="patch_7">
    <path d="M 436.189091 332.64 
L 750.370909 332.64 
" style="fill: none; stroke: #000000; stroke-width: 0.8; stroke-linejoin: miter; stroke-linecap: square"/>
   </g>
   <g id="text_22">
    <!-- R23 -->
    <g transform="translate(582.32625 80.4) scale(0.12 -0.12)">
     <use xlink:href="#MicrosoftYaHei-38"/>
     <use xlink:href="#MicrosoftYaHei-18" transform="translate(65.28125 0)"/>
     <use xlink:href="#MicrosoftYaHei-19" transform="translate(123.921875 0)"/>
    </g>
   </g>
  </g>
  <g id="axes_3">
   <g id="patch_8">
    <path d="M 797.498182 332.64 
L 1111.68 332.64 
L 1111.68 86.4 
L 797.498182 86.4 
z
" style="fill: #ffffff"/>
   </g>
   <g id="matplotlib.axis_5">
    <g id="xtick_13">
     <g id="line2d_49">
      <g>
       <use xlink:href="#m17f3399128" x="811.779174" y="332.64" style="stroke: #000000; stroke-width: 0.8"/>
      </g>
     </g>
     <g id="text_23">
      <!-- 2021 -->
      <g transform="translate(801.713593 355.292924) rotate(-20) scale(0.1 -0.1)">
       <use xlink:href="#MicrosoftYaHei-18"/>
       <use xlink:href="#MicrosoftYaHei-16" transform="translate(58.640625 0)"/>
       <use xlink:href="#MicrosoftYaHei-18" transform="translate(117.28125 0)"/>
       <use xlink:href="#MicrosoftYaHei-17" transform="translate(175.921875 0)"/>
      </g>
     </g>
    </g>
    <g id="xtick_14">
     <g id="line2d_50">
      <g>
       <use xlink:href="#m17f3399128" x="868.90314" y="332.64" style="stroke: #000000; stroke-width: 0.8"/>
      </g>
     </g>
     <g id="text_24">
      <!-- 2022 -->
      <g transform="translate(858.83756 355.292924) rotate(-20) scale(0.1 -0.1)">
       <use xlink:href="#MicrosoftYaHei-18"/>
       <use xlink:href="#MicrosoftYaHei-16" transform="translate(58.640625 0)"/>
       <use xlink:href="#MicrosoftYaHei-18" transform="translate(117.28125 0)"/>
       <use xlink:href="#MicrosoftYaHei-18" transform="translate(175.921875 0)"/>
      </g>
     </g>
    </g>
    <g id="xtick_15">
     <g id="line2d_51">
      <g>
       <use xlink:href="#m17f3399128" x="926.027107" y="332.64" style="stroke: #000000; stroke-width: 0.8"/>
      </g>
     </g>
     <g id="text_25">
      <!-- 2023 -->
      <g transform="translate(915.961526 355.292924) rotate(-20) scale(0.1 -0.1)">
       <use xlink:href="#MicrosoftYaHei-18"/>
       <use xlink:href="#MicrosoftYaHei-16" transform="translate(58.640625 0)"/>
       <use xlink:href="#MicrosoftYaHei-18" transform="translate(117.28125 0)"/>
       <use xlink:href="#MicrosoftYaHei-19" transform="translate(175.921875 0)"/>
      </g>
     </g>
    </g>
    <g id="xtick_16">
     <g id="line2d_52">
      <g>
       <use xlink:href="#m17f3399128" x="983.151074" y="332.64" style="stroke: #000000; stroke-width: 0.8"/>
      </g>
     </g>
     <g id="text_26">
      <!-- 2024 -->
      <g transform="translate(973.085493 355.292924) rotate(-20) scale(0.1 -0.1)">
       <use xlink:href="#MicrosoftYaHei-18"/>
       <use xlink:href="#MicrosoftYaHei-16" transform="translate(58.640625 0)"/>
       <use xlink:href="#MicrosoftYaHei-18" transform="translate(117.28125 0)"/>
       <use xlink:href="#MicrosoftYaHei-1a" transform="translate(175.921875 0)"/>
      </g>
     </g>
    </g>
    <g id="xtick_17">
     <g id="line2d_53">
      <g>
       <use xlink:href="#m17f3399128" x="1040.275041" y="332.64" style="stroke: #000000; stroke-width: 0.8"/>
      </g>
     </g>
     <g id="text_27">
      <!-- 2025 -->
      <g transform="translate(1030.20946 355.292924) rotate(-20) scale(0.1 -0.1)">
       <use xlink:href="#MicrosoftYaHei-18"/>
       <use xlink:href="#MicrosoftYaHei-16" transform="translate(58.640625 0)"/>
       <use xlink:href="#MicrosoftYaHei-18" transform="translate(117.28125 0)"/>
       <use xlink:href="#MicrosoftYaHei-1b" transform="translate(175.921875 0)"/>
      </g>
     </g>
    </g>
    <g id="xtick_18">
     <g id="line2d_54">
      <g>
       <use xlink:href="#m17f3399128" x="1097.399008" y="332.64" style="stroke: #000000; stroke-width: 0.8"/>
      </g>
     </g>
     <g id="text_28">
      <!-- 2026* -->
      <g transform="translate(1085.194892 356.84965) rotate(-20) scale(0.1 -0.1)">
       <use xlink:href="#MicrosoftYaHei-18"/>
       <use xlink:href="#MicrosoftYaHei-16" transform="translate(58.640625 0)"/>
       <use xlink:href="#MicrosoftYaHei-18" transform="translate(117.28125 0)"/>
       <use xlink:href="#MicrosoftYaHei-1c" transform="translate(175.921875 0)"/>
       <use xlink:href="#MicrosoftYaHei-10" transform="translate(234.5625 0)"/>
      </g>
     </g>
    </g>
   </g>
   <g id="matplotlib.axis_6">
    <g id="ytick_15">
     <g id="line2d_55">
      <path d="M 797.498182 332.64 
L 1111.68 332.64 
" clip-path="url(#p445d3da02c)" style="fill: none; stroke: #b0b0b0; stroke-opacity: 0.2; stroke-width: 0.8; stroke-linecap: square"/>
     </g>
     <g id="line2d_56">
      <g>
       <use xlink:href="#me6b390f161" x="797.498182" y="332.64" style="stroke: #000000; stroke-width: 0.8"/>
      </g>
     </g>
    </g>
    <g id="ytick_16">
     <g id="line2d_57">
      <path d="M 797.498182 291.6 
L 1111.68 291.6 
" clip-path="url(#p445d3da02c)" style="fill: none; stroke: #b0b0b0; stroke-opacity: 0.2; stroke-width: 0.8; stroke-linecap: square"/>
     </g>
     <g id="line2d_58">
      <g>
       <use xlink:href="#me6b390f161" x="797.498182" y="291.6" style="stroke: #000000; stroke-width: 0.8"/>
      </g>
     </g>
    </g>
    <g id="ytick_17">
     <g id="line2d_59">
      <path d="M 797.498182 250.56 
L 1111.68 250.56 
" clip-path="url(#p445d3da02c)" style="fill: none; stroke: #b0b0b0; stroke-opacity: 0.2; stroke-width: 0.8; stroke-linecap: square"/>
     </g>
     <g id="line2d_60">
      <g>
       <use xlink:href="#me6b390f161" x="797.498182" y="250.56" style="stroke: #000000; stroke-width: 0.8"/>
      </g>
     </g>
    </g>
    <g id="ytick_18">
     <g id="line2d_61">
      <path d="M 797.498182 209.52 
L 1111.68 209.52 
" clip-path="url(#p445d3da02c)" style="fill: none; stroke: #b0b0b0; stroke-opacity: 0.2; stroke-width: 0.8; stroke-linecap: square"/>
     </g>
     <g id="line2d_62">
      <g>
       <use xlink:href="#me6b390f161" x="797.498182" y="209.52" style="stroke: #000000; stroke-width: 0.8"/>
      </g>
     </g>
    </g>
    <g id="ytick_19">
     <g id="line2d_63">
      <path d="M 797.498182 168.48 
L 1111.68 168.48 
" clip-path="url(#p445d3da02c)" style="fill: none; stroke: #b0b0b0; stroke-opacity: 0.2; stroke-width: 0.8; stroke-linecap: square"/>
     </g>
     <g id="line2d_64">
      <g>
       <use xlink:href="#me6b390f161" x="797.498182" y="168.48" style="stroke: #000000; stroke-width: 0.8"/>
      </g>
     </g>
    </g>
    <g id="ytick_20">
     <g id="line2d_65">
      <path d="M 797.498182 127.44 
L 1111.68 127.44 
" clip-path="url(#p445d3da02c)" style="fill: none; stroke: #b0b0b0; stroke-opacity: 0.2; stroke-width: 0.8; stroke-linecap: square"/>
     </g>
     <g id="line2d_66">
      <g>
       <use xlink:href="#me6b390f161" x="797.498182" y="127.44" style="stroke: #000000; stroke-width: 0.8"/>
      </g>
     </g>
    </g>
    <g id="ytick_21">
     <g id="line2d_67">
      <path d="M 797.498182 86.4 
L 1111.68 86.4 
" clip-path="url(#p445d3da02c)" style="fill: none; stroke: #b0b0b0; stroke-opacity: 0.2; stroke-width: 0.8; stroke-linecap: square"/>
     </g>
     <g id="line2d_68">
      <g>
       <use xlink:href="#me6b390f161" x="797.498182" y="86.4" style="stroke: #000000; stroke-width: 0.8"/>
      </g>
     </g>
    </g>
   </g>
   <g id="line2d_69">
    <path d="M 811.779174 176.688 
L 868.90314 255.585306 
L 926.027107 243.72 
L 983.151074 135.298723 
L 1040.275041 218.07 
L 1097.399008 195.84 
" clip-path="url(#p445d3da02c)" style="fill: none; stroke: #333333; stroke-width: 2; stroke-linecap: square"/>
    <g clip-path="url(#p445d3da02c)">
     <use xlink:href="#m9f27995ba1" x="811.779174" y="176.688" style="fill: #333333; stroke: #333333"/>
     <use xlink:href="#m9f27995ba1" x="868.90314" y="255.585306" style="fill: #333333; stroke: #333333"/>
     <use xlink:href="#m9f27995ba1" x="926.027107" y="243.72" style="fill: #333333; stroke: #333333"/>
     <use xlink:href="#m9f27995ba1" x="983.151074" y="135.298723" style="fill: #333333; stroke: #333333"/>
     <use xlink:href="#m9f27995ba1" x="1040.275041" y="218.07" style="fill: #333333; stroke: #333333"/>
     <use xlink:href="#m9f27995ba1" x="1097.399008" y="195.84" style="fill: #333333; stroke: #333333"/>
    </g>
   </g>
   <g id="line2d_70">
    <path d="M 811.779174 176.688 
L 868.90314 280.711837 
L 926.027107 243.72 
L 983.151074 135.298723 
L 1040.275041 200.97 
L 1097.399008 236.88 
" clip-path="url(#p445d3da02c)" style="fill: none; stroke: #0077bb; stroke-width: 2; stroke-linecap: square"/>
    <g clip-path="url(#p445d3da02c)">
     <use xlink:href="#m23e560d1e1" x="811.779174" y="176.688" style="fill: #0077bb; stroke: #0077bb"/>
     <use xlink:href="#m23e560d1e1" x="868.90314" y="280.711837" style="fill: #0077bb; stroke: #0077bb"/>
     <use xlink:href="#m23e560d1e1" x="926.027107" y="243.72" style="fill: #0077bb; stroke: #0077bb"/>
     <use xlink:href="#m23e560d1e1" x="983.151074" y="135.298723" style="fill: #0077bb; stroke: #0077bb"/>
     <use xlink:href="#m23e560d1e1" x="1040.275041" y="200.97" style="fill: #0077bb; stroke: #0077bb"/>
     <use xlink:href="#m23e560d1e1" x="1097.399008" y="236.88" style="fill: #0077bb; stroke: #0077bb"/>
    </g>
   </g>
   <g id="line2d_71">
    <path d="M 811.779174 193.104 
L 868.90314 272.336327 
L 926.027107 235.17 
L 983.151074 135.298723 
L 1040.275041 200.97 
L 1097.399008 223.2 
" clip-path="url(#p445d3da02c)" style="fill: none; stroke: #ee7733; stroke-width: 2; stroke-linecap: square"/>
    <g clip-path="url(#p445d3da02c)">
     <use xlink:href="#m63a606cffe" x="811.779174" y="193.104" style="fill: #ee7733; stroke: #ee7733"/>
     <use xlink:href="#m63a606cffe" x="868.90314" y="272.336327" style="fill: #ee7733; stroke: #ee7733"/>
     <use xlink:href="#m63a606cffe" x="926.027107" y="235.17" style="fill: #ee7733; stroke: #ee7733"/>
     <use xlink:href="#m63a606cffe" x="983.151074" y="135.298723" style="fill: #ee7733; stroke: #ee7733"/>
     <use xlink:href="#m63a606cffe" x="1040.275041" y="200.97" style="fill: #ee7733; stroke: #ee7733"/>
     <use xlink:href="#m63a606cffe" x="1097.399008" y="223.2" style="fill: #ee7733; stroke: #ee7733"/>
    </g>
   </g>
   <g id="line2d_72">
    <path d="M 811.779174 176.688 
L 868.90314 272.336327 
L 926.027107 252.27 
L 983.151074 135.298723 
L 1040.275041 209.52 
L 1097.399008 236.88 
" clip-path="url(#p445d3da02c)" style="fill: none; stroke: #aa4499; stroke-width: 2; stroke-linecap: square"/>
    <g clip-path="url(#p445d3da02c)">
     <use xlink:href="#m9b4cd3a8cb" x="811.779174" y="176.688" style="fill: #aa4499; stroke: #aa4499"/>
     <use xlink:href="#m9b4cd3a8cb" x="868.90314" y="272.336327" style="fill: #aa4499; stroke: #aa4499"/>
     <use xlink:href="#m9b4cd3a8cb" x="926.027107" y="252.27" style="fill: #aa4499; stroke: #aa4499"/>
     <use xlink:href="#m9b4cd3a8cb" x="983.151074" y="135.298723" style="fill: #aa4499; stroke: #aa4499"/>
     <use xlink:href="#m9b4cd3a8cb" x="1040.275041" y="209.52" style="fill: #aa4499; stroke: #aa4499"/>
     <use xlink:href="#m9b4cd3a8cb" x="1097.399008" y="236.88" style="fill: #aa4499; stroke: #aa4499"/>
    </g>
   </g>
   <g id="patch_9">
    <path d="M 797.498182 332.64 
L 797.498182 86.4 
" style="fill: none; stroke: #000000; stroke-width: 0.8; stroke-linejoin: miter; stroke-linecap: square"/>
   </g>
   <g id="patch_10">
    <path d="M 797.498182 332.64 
L 1111.68 332.64 
" style="fill: none; stroke: #000000; stroke-width: 0.8; stroke-linejoin: miter; stroke-linecap: square"/>
   </g>
   <g id="text_29">
    <!-- R25 -->
    <g transform="translate(943.635341 80.4) scale(0.12 -0.12)">
     <use xlink:href="#MicrosoftYaHei-38"/>
     <use xlink:href="#MicrosoftYaHei-18" transform="translate(65.28125 0)"/>
     <use xlink:href="#MicrosoftYaHei-1b" transform="translate(123.921875 0)"/>
    </g>
   </g>
  </g>
  <g id="text_30">
   <!-- 固定年度模型后，状态修正能否改善各年预测？ -->
   <g transform="translate(387 36.779063) scale(0.18 -0.18)">
    <defs>
     <path id="MicrosoftYaHei-5a1" d="M 469 4997 
L 5938 4997 
L 5938 -834 
L 5469 -834 
L 5469 -509 
L 944 -509 
L 944 -841 
L 469 -841 
L 469 4997 
z
M 5469 4541 
L 944 4541 
L 944 -53 
L 5469 -53 
L 5469 4541 
z
M 1869 2459 
L 2963 2459 
L 2963 3216 
L 1313 3216 
L 1313 3641 
L 2963 3641 
L 2963 4366 
L 3425 4366 
L 3425 3641 
L 5081 3641 
L 5081 3216 
L 3425 3216 
L 3425 2459 
L 4531 2459 
L 4531 434 
L 4081 434 
L 4081 691 
L 2319 691 
L 2319 434 
L 1869 434 
L 1869 2459 
z
M 4081 2047 
L 2319 2047 
L 2319 1103 
L 4081 1103 
L 4081 2047 
z
" transform="scale(0.015625)"/>
     <path id="MicrosoftYaHei-614" d="M 81 -384 
Q 1119 509 1281 2241 
L 1806 2159 
Q 1731 1581 1578 1081 
Q 2063 50 3081 -103 
L 3081 2647 
L 225 2647 
L 225 3116 
L 6163 3116 
L 6163 2647 
L 3600 2647 
L 3600 1634 
L 5775 1634 
L 5775 1172 
L 3600 1172 
L 3600 -138 
Q 4844 -169 6306 -116 
Q 6200 -359 6125 -634 
Q 4594 -653 3450 -616 
Q 2041 -616 1378 528 
Q 1022 -300 413 -872 
Q 269 -628 81 -384 
z
M 450 4566 
L 3116 4566 
Q 2931 4834 2725 5091 
L 3200 5347 
Q 3444 5066 3731 4716 
L 3450 4566 
L 5981 4566 
L 5981 3378 
L 5488 3378 
L 5488 4097 
L 944 4097 
L 944 3384 
L 450 3384 
L 450 4566 
z
" transform="scale(0.015625)"/>
     <path id="MicrosoftYaHei-676" d="M 119 1278 
L 1125 1278 
L 1125 3066 
L 3338 3066 
L 3338 4178 
L 1500 4178 
Q 1078 3419 556 2778 
Q 394 2953 169 3128 
Q 1056 4128 1500 5372 
L 2013 5228 
Q 1881 4919 1738 4628 
L 6038 4628 
L 6038 4178 
L 3844 4178 
L 3844 3066 
L 5931 3066 
L 5931 2628 
L 3844 2628 
L 3844 1278 
L 6319 1278 
L 6319 828 
L 3844 828 
L 3844 -859 
L 3338 -859 
L 3338 828 
L 119 828 
L 119 1278 
z
M 1619 1278 
L 3338 1278 
L 3338 2628 
L 1619 2628 
L 1619 1278 
z
" transform="scale(0.015625)"/>
     <path id="MicrosoftYaHei-686" d="M 1550 1216 
L 1550 1628 
L 5469 1628 
L 5469 1222 
Q 4903 613 4147 163 
Q 5050 -200 6263 -309 
L 6019 -797 
Q 4625 -603 3644 -109 
Q 2600 -619 1250 -866 
Q 1150 -666 994 -416 
Q 2231 -222 3166 166 
Q 2497 600 2066 1216 
L 1550 1216 
z
M 1363 3541 
L 2294 3541 
L 2294 4066 
L 2769 4066 
L 2769 3541 
L 4538 3541 
L 4538 4072 
L 5013 4072 
L 5013 3541 
L 6150 3541 
L 6150 3128 
L 5013 3128 
L 5013 1928 
L 4538 1928 
L 4538 2147 
L 2769 2147 
L 2769 1922 
L 2294 1922 
L 2294 3128 
L 1363 3128 
L 1363 3541 
z
M 3025 5172 
L 3481 5391 
Q 3694 5056 3909 4634 
L 6213 4634 
L 6213 4197 
L 1225 4197 
L 1225 2316 
Q 1225 178 394 -872 
Q 238 -666 38 -447 
Q 725 397 738 2347 
L 738 4634 
L 3331 4634 
Q 3188 4909 3025 5172 
z
M 2769 2547 
L 4538 2547 
L 4538 3128 
L 2769 3128 
L 2769 2547 
z
M 4819 1216 
L 2588 1216 
Q 3031 728 3656 391 
Q 4334 741 4819 1216 
z
" transform="scale(0.015625)"/>
     <path id="MicrosoftYaHei-825" d="M 2050 984 
L 3859 984 
Q 3900 1213 3913 1547 
L 2950 1547 
L 2950 1372 
L 2500 1372 
L 2500 3634 
L 5844 3634 
L 5844 1372 
L 5394 1372 
L 5394 1547 
L 4344 1547 
Q 4325 1203 4288 984 
L 6250 984 
L 6250 584 
L 4525 584 
Q 5203 -175 6319 -341 
Q 6144 -572 6013 -809 
Q 4803 -456 4128 466 
Q 3681 -431 2075 -847 
Q 1969 -628 1831 -416 
Q 3303 -106 3713 584 
L 2050 584 
L 2050 984 
z
M 63 1409 
Q 603 2316 922 3509 
L 138 3509 
L 138 3922 
L 1006 3922 
L 1006 5309 
L 1444 5309 
L 1444 3922 
L 2256 3922 
L 2256 3509 
L 1444 3509 
L 1444 2684 
L 1688 2884 
Q 2044 2503 2350 2116 
L 2006 1828 
Q 1719 2244 1444 2563 
L 1444 -822 
L 1006 -822 
L 1006 2581 
Q 672 1438 275 859 
Q 188 1128 63 1409 
z
M 4713 5303 
L 5150 5303 
L 5150 4703 
L 6225 4703 
L 6225 4303 
L 5150 4303 
L 5150 3797 
L 4713 3797 
L 4713 4303 
L 3600 4303 
L 3600 3797 
L 3163 3797 
L 3163 4303 
L 2175 4303 
L 2175 4703 
L 3163 4703 
L 3163 5309 
L 3600 5309 
L 3600 4703 
L 4713 4703 
L 4713 5303 
z
M 5394 3247 
L 2950 3247 
L 2950 2778 
L 5394 2778 
L 5394 3247 
z
M 2950 1934 
L 5394 1934 
L 5394 2403 
L 2950 2403 
L 2950 1934 
z
" transform="scale(0.015625)"/>
     <path id="MicrosoftYaHei-5ba" d="M 150 3503 
L 1100 3503 
Q 1106 3638 1106 4547 
L 413 4547 
L 413 4959 
L 3675 4959 
L 3675 4547 
L 2994 4547 
L 2994 3503 
L 3881 3503 
L 3881 3091 
L 2994 3091 
L 2994 1747 
L 2538 1747 
L 2538 3091 
L 1528 3091 
Q 1450 2191 638 1534 
Q 475 1716 294 1897 
Q 1013 2453 1066 3091 
L 150 3091 
L 150 3503 
z
M 138 -103 
L 2938 -103 
L 2938 741 
L 706 741 
L 706 1172 
L 2938 1172 
L 2938 1659 
L 3425 1659 
L 3425 1172 
L 5713 1172 
L 5713 741 
L 3425 741 
L 3425 -103 
L 6256 -103 
L 6256 -534 
L 138 -534 
L 138 -103 
z
M 5856 5209 
L 5856 2334 
Q 5856 1672 5200 1659 
Q 4825 1647 4331 1659 
Q 4306 1897 4256 2153 
Q 4781 2122 5044 2122 
Q 5400 2122 5400 2516 
L 5400 5209 
L 5856 5209 
z
M 1556 3503 
L 2538 3503 
L 2538 4547 
L 1563 4547 
Q 1563 3791 1556 3503 
z
M 4138 4859 
L 4588 4859 
L 4588 2697 
L 4138 2697 
L 4138 4859 
z
" transform="scale(0.015625)"/>
     <path id="MicrosoftYaHei-565" d="M 1888 1984 
L 5688 1984 
L 5688 -828 
L 5188 -828 
L 5188 -403 
L 2388 -403 
L 2388 -828 
L 1888 -828 
L 1888 1984 
z
M 1313 2991 
Q 1313 1272 1138 672 
Q 963 -16 394 -847 
Q 250 -634 50 -409 
Q 494 222 650 859 
Q 806 1472 806 2659 
L 806 4766 
Q 3544 4853 5631 5141 
L 5931 4622 
Q 3344 4359 1313 4284 
L 1313 3459 
L 6263 3459 
L 6263 2991 
L 1313 2991 
z
M 5188 1528 
L 2388 1528 
L 2388 41 
L 5188 41 
L 5188 1528 
z
" transform="scale(0.015625)"/>
     <path id="MicrosoftYaHei-36b" d="M 1931 775 
L 1403 -891 
L 966 -891 
L 1350 775 
L 1931 775 
z
" transform="scale(0.015625)"/>
     <path id="MicrosoftYaHei-8d9" d="M 2213 3516 
L 3791 3516 
Q 3825 4369 3825 5297 
L 4325 5297 
Q 4325 4338 4294 3516 
L 6175 3516 
L 6175 3047 
L 4309 3047 
Q 4884 628 6313 -228 
Q 6069 -491 5906 -703 
Q 4638 266 4119 2106 
Q 3766 413 2363 -809 
Q 2169 -541 2013 -384 
Q 3600 853 3766 3047 
L 2213 3047 
L 2213 3516 
z
M 1494 5316 
L 1994 5316 
L 1994 -834 
L 1494 -834 
L 1494 1606 
Q 916 1119 400 691 
L 75 1122 
Q 769 1628 1494 2222 
L 1494 5316 
z
M 219 4134 
L 644 4334 
Q 1019 3672 1306 2884 
L 831 2666 
Q 519 3541 219 4134 
z
M 5006 5053 
Q 5550 4641 5950 4278 
Q 5775 4078 5606 3884 
Q 5150 4328 4681 4716 
L 5006 5053 
z
" transform="scale(0.015625)"/>
     <path id="MicrosoftYaHei-6c1" d="M 325 4434 
L 2888 4434 
Q 2972 4822 2969 5328 
L 3438 5328 
Q 3444 4841 3372 4434 
L 6075 4434 
L 6075 3991 
L 3528 3991 
Q 4419 2706 6231 2241 
Q 6050 2034 5881 1759 
Q 4041 2394 3172 3772 
Q 2975 3331 2588 2953 
Q 3078 2616 3538 2259 
L 3225 1891 
Q 2828 2244 2259 2675 
Q 1556 2138 388 1703 
Q 294 1922 113 2178 
Q 2250 2866 2750 3991 
L 325 3991 
L 325 4434 
z
M 1713 1547 
L 2200 1547 
L 2200 203 
Q 2200 -172 2575 -172 
L 3763 -172 
Q 4175 -172 4256 134 
Q 4331 428 4381 1028 
Q 4556 953 4863 847 
Q 4763 128 4706 -47 
Q 4563 -616 3869 -616 
L 2488 -616 
Q 1713 -616 1713 172 
L 1713 1547 
z
M 813 1447 
L 1281 1297 
Q 1038 522 663 -297 
Q 463 -203 194 -116 
Q 569 591 813 1447 
z
M 4894 1272 
L 5263 1553 
Q 5781 972 6306 309 
L 5888 -9 
Q 5425 641 4894 1272 
z
M 2594 1503 
L 2913 1809 
Q 3419 1403 3850 991 
L 3488 641 
Q 3094 1059 2594 1503 
z
" transform="scale(0.015625)"/>
     <path id="MicrosoftYaHei-493" d="M 2363 3553 
Q 3131 4359 3531 5316 
L 3981 5178 
Q 3859 4919 3725 4678 
L 5788 4678 
L 5788 4284 
Q 5353 3653 4741 3175 
Q 5366 2850 6313 2684 
Q 6213 2522 6094 2222 
Q 4959 2506 4338 2894 
Q 3653 2459 2588 2084 
Q 2469 2284 2325 2491 
Q 3294 2747 3975 3156 
Q 3553 3497 3247 3916 
Q 2997 3566 2713 3259 
Q 2575 3397 2363 3553 
z
M 81 2278 
Q 856 3653 1238 5316 
L 1700 5228 
Q 1509 4497 1281 3856 
L 1281 -822 
L 838 -822 
L 838 2769 
Q 578 2213 281 1747 
Q 200 1997 81 2278 
z
M 5750 1103 
L 6031 759 
Q 4538 -409 2581 -884 
Q 2456 -653 2331 -478 
Q 4288 -16 5750 1103 
z
M 1775 528 
L 1775 4316 
L 2206 4316 
L 2206 528 
L 1775 528 
z
M 5188 1847 
L 5481 1509 
Q 4406 703 2913 147 
Q 2763 378 2631 534 
Q 4194 1041 5188 1847 
z
M 4581 2484 
L 4881 2166 
Q 3925 1522 2844 1141 
Q 2744 1328 2563 1516 
Q 3644 1822 4581 2484 
z
M 5219 4291 
L 3497 4291 
Q 3494 4284 3491 4278 
Q 3863 3744 4356 3413 
Q 4913 3828 5219 4291 
z
" transform="scale(0.015625)"/>
     <path id="MicrosoftYaHei-833" d="M 88 66 
L 1106 66 
L 1106 3416 
L 1644 3416 
L 1644 66 
L 3231 66 
L 3231 4309 
L 375 4309 
L 375 4797 
L 6063 4797 
L 6063 4309 
L 3769 4309 
L 3769 2672 
L 5850 2672 
L 5850 2191 
L 3769 2191 
L 3769 66 
L 6313 66 
L 6313 -422 
L 88 -422 
L 88 66 
z
" transform="scale(0.015625)"/>
     <path id="MicrosoftYaHei-a08" d="M 950 -759 
L 463 -759 
L 463 2928 
L 3000 2928 
L 3000 -28 
Q 3000 -703 2375 -703 
Q 2100 -709 1669 -709 
Q 1638 -516 1575 -234 
Q 1969 -266 2206 -266 
Q 2513 -266 2513 53 
L 2513 572 
L 950 572 
L 950 -759 
z
M 3606 2253 
L 4094 2253 
L 4094 1222 
Q 4981 1553 5950 2091 
L 6231 1659 
Q 5209 1122 4094 706 
L 4094 166 
Q 4094 -228 4400 -228 
L 5319 -228 
Q 5638 -228 5688 78 
Q 5731 353 5763 897 
Q 6000 803 6250 722 
Q 6200 172 6144 -109 
Q 6063 -659 5363 -659 
L 4319 -659 
Q 3606 -659 3606 72 
L 3606 2253 
z
M 3619 5303 
L 4106 5303 
L 4106 4231 
Q 4966 4572 5813 5053 
L 6094 4622 
Q 5119 4128 4106 3719 
L 4106 3359 
Q 4106 2941 4438 2941 
L 5231 2941 
Q 5625 2941 5675 3266 
Q 5719 3534 5750 4047 
Q 5988 3953 6238 3866 
Q 6188 3366 6131 3053 
Q 6038 2509 5288 2509 
L 4375 2509 
Q 3619 2509 3619 3259 
L 3619 5303 
z
M 2463 4772 
Q 3031 4034 3450 3353 
Q 3213 3191 3019 3066 
Q 2897 3281 2759 3506 
Q 1231 3394 313 3303 
L 113 3828 
Q 388 3978 719 4391 
Q 1063 4841 1394 5397 
L 1888 5216 
Q 1369 4466 794 3797 
Q 1731 3856 2497 3919 
Q 2300 4216 2075 4528 
L 2463 4772 
z
M 950 947 
L 2513 947 
L 2513 1553 
L 950 1553 
L 950 947 
z
M 2513 2528 
L 950 2528 
L 950 1928 
L 2513 1928 
L 2513 2528 
z
" transform="scale(0.015625)"/>
     <path id="MicrosoftYaHei-56b" d="M 938 1959 
L 5463 1959 
L 5463 -816 
L 4956 -816 
L 4956 -397 
L 1444 -397 
L 1444 -828 
L 938 -828 
L 938 1959 
z
M 350 4959 
L 6050 4959 
L 6050 4509 
L 3713 4509 
Q 3494 4247 3219 3984 
L 3488 3984 
L 3488 2166 
L 2981 2166 
L 2981 3772 
Q 1813 2803 419 2159 
Q 313 2347 100 2616 
Q 1875 3378 3113 4509 
L 350 4509 
L 350 4959 
z
M 4956 1509 
L 1444 1509 
L 1444 41 
L 4956 41 
L 4956 1509 
z
M 3619 3622 
L 3888 3984 
Q 5244 3297 6313 2603 
L 5981 2172 
Q 4913 2916 3619 3622 
z
" transform="scale(0.015625)"/>
     <path id="MicrosoftYaHei-777" d="M 2513 2709 
Q 3106 3791 3575 5341 
L 4069 5197 
Q 3894 4694 3709 4234 
L 6238 4234 
L 6238 3772 
L 5506 3772 
Q 5338 1747 4597 772 
Q 5203 125 6331 -259 
Q 6150 -434 5938 -747 
Q 4863 -234 4272 391 
Q 3634 -259 2363 -847 
Q 2213 -628 1994 -403 
Q 3303 144 3941 791 
Q 3363 1594 3147 2944 
Q 2988 2616 2825 2316 
Q 2669 2541 2513 2709 
z
M 450 2809 
L 2013 2809 
L 2013 4372 
L 331 4372 
L 331 4809 
L 2500 4809 
L 2500 2034 
L 2013 2034 
L 2013 2372 
L 938 2372 
L 938 303 
Q 1700 666 2500 1116 
Q 2544 816 2600 609 
Q 1788 203 931 -278 
Q 700 -441 569 -572 
L 231 -141 
Q 450 59 450 422 
L 450 2809 
z
M 3463 3634 
Q 3681 2050 4269 1184 
Q 4853 2038 5016 3772 
L 3522 3772 
L 3463 3634 
z
" transform="scale(0.015625)"/>
     <path id="MicrosoftYaHei-591" d="M 138 1859 
L 1584 1859 
Q 1422 2106 1238 2359 
L 1544 2547 
L 238 2547 
L 238 2934 
L 2969 2934 
L 2969 3366 
L 700 3366 
L 700 3741 
L 2969 3741 
L 2969 4172 
L 438 4172 
L 438 4559 
L 2038 4559 
Q 1834 4841 1613 5103 
L 1981 5359 
Q 2256 5078 2538 4741 
L 2269 4559 
L 3797 4559 
Q 4047 4913 4313 5353 
L 4794 5097 
Q 4603 4863 4347 4559 
L 5988 4559 
L 5988 4172 
L 3431 4172 
L 3431 3741 
L 5700 3741 
L 5700 3366 
L 3431 3366 
L 3431 2934 
L 6156 2934 
L 6156 2547 
L 4869 2547 
L 5194 2359 
Q 5016 2131 4791 1859 
L 6269 1859 
L 6269 1472 
L 138 1472 
L 138 1859 
z
M 925 1003 
L 5475 1003 
L 5475 -822 
L 5013 -822 
L 5013 -522 
L 1388 -522 
L 1388 -834 
L 925 -834 
L 925 1003 
z
M 5013 628 
L 1388 628 
L 1388 -147 
L 5013 -147 
L 5013 628 
z
M 2075 1991 
L 1856 1859 
L 2969 1859 
L 2969 2547 
L 1663 2547 
Q 1897 2250 2075 1991 
z
M 4684 2547 
L 3431 2547 
L 3431 1859 
L 4250 1859 
Q 4494 2213 4684 2547 
z
" transform="scale(0.015625)"/>
     <path id="MicrosoftYaHei-55f" d="M 1838 5366 
L 2325 5191 
Q 2191 4934 2038 4691 
L 5463 4691 
L 5463 4234 
Q 4819 3428 3806 2831 
Q 4881 2366 6375 2266 
Q 6169 1953 6025 1703 
Q 4388 1947 3272 2544 
Q 2022 1925 300 1578 
Q 169 1828 31 2059 
Q 1591 2303 2775 2844 
Q 2041 3347 1588 4038 
Q 1138 3444 569 2916 
Q 400 3122 225 3278 
Q 1288 4191 1838 5366 
z
M 1100 1666 
L 5363 1666 
L 5363 -803 
L 4875 -803 
L 4875 -441 
L 1588 -441 
L 1588 -803 
L 1100 -803 
L 1100 1666 
z
M 4875 1216 
L 1588 1216 
L 1588 -3 
L 4875 -3 
L 4875 1216 
z
M 4794 4241 
L 1988 4241 
Q 2494 3547 3275 3094 
Q 4153 3575 4794 4241 
z
" transform="scale(0.015625)"/>
     <path id="MicrosoftYaHei-bc4" d="M 531 3872 
L 844 4147 
Q 1069 3947 1275 3747 
L 1938 4553 
L 175 4553 
L 175 4991 
L 2513 4991 
L 2513 4553 
L 1588 3434 
Q 1694 3322 1794 3216 
L 1544 2997 
L 2681 2997 
L 2681 2578 
Q 2581 2097 2369 1466 
Q 2175 1534 1938 1609 
Q 2094 2003 2213 2559 
L 1588 2559 
L 1588 -72 
Q 1588 -784 888 -784 
L 225 -784 
Q 194 -559 138 -278 
Q 450 -316 769 -316 
Q 1119 -316 1119 84 
L 1119 2559 
L 113 2559 
L 113 2997 
L 1344 2997 
Q 938 3484 531 3872 
z
M 2969 3716 
L 4025 3716 
L 4181 4572 
L 2744 4572 
L 2744 5009 
L 6294 5009 
L 6294 4572 
L 4688 4572 
L 4506 3716 
L 6006 3716 
L 6006 641 
L 5550 641 
L 5550 3284 
L 3425 3284 
L 3425 641 
L 2969 641 
L 2969 3716 
z
M 4244 3028 
L 4706 3028 
L 4706 2097 
Q 4706 1366 4519 841 
Q 5500 184 6306 -441 
L 5963 -847 
Q 5200 -197 4325 428 
Q 4263 334 4200 247 
Q 3694 -397 2613 -897 
Q 2413 -641 2263 -484 
Q 3381 -22 3831 572 
Q 4244 1109 4244 2128 
L 4244 3028 
z
" transform="scale(0.015625)"/>
     <path id="MicrosoftYaHei-879" d="M 875 1753 
Q 1175 1597 1369 1522 
Q 950 -41 763 -784 
L 250 -547 
Q 619 497 875 1753 
z
M 638 5166 
Q 1019 4847 1588 4303 
Q 1381 4103 1213 3928 
Q 756 4434 313 4853 
L 638 5166 
z
M 356 3559 
Q 881 3134 1350 2716 
Q 1188 2547 988 2322 
Q 425 2878 50 3216 
L 356 3559 
z
M 5575 5284 
L 6031 5284 
L 6031 -34 
Q 6031 -753 5338 -753 
Q 5038 -753 4625 -741 
Q 4600 -509 4538 -228 
Q 4938 -272 5219 -272 
Q 5575 -272 5575 84 
L 5575 5284 
z
M 5038 634 
L 4600 634 
L 4600 4778 
L 5038 4778 
L 5038 634 
z
M 1706 4941 
L 4063 4941 
L 4063 991 
L 3613 991 
L 3613 4503 
L 2156 4503 
L 2156 991 
L 1706 991 
L 1706 4941 
z
M 2681 3966 
L 3138 3966 
L 3138 2416 
Q 3138 1466 2963 891 
Q 3775 266 4375 -234 
L 4038 -616 
Q 3538 -141 2800 472 
Q 2413 -297 1406 -884 
Q 1269 -684 1100 -484 
Q 2031 53 2375 709 
Q 2681 1278 2681 2403 
L 2681 3966 
z
" transform="scale(0.015625)"/>
     <path id="MicrosoftYaHei-37e" d="M 1722 1369 
L 1178 1369 
L 1178 1638 
Q 1178 1966 1309 2202 
Q 1441 2438 1778 2700 
Q 2109 2956 2251 3179 
Q 2394 3403 2394 3694 
Q 2394 4003 2173 4203 
Q 1953 4403 1575 4403 
Q 978 4403 525 3950 
L 525 4588 
Q 1050 4916 1663 4916 
Q 2272 4916 2633 4595 
Q 2994 4275 2994 3756 
Q 2994 3394 2825 3097 
Q 2656 2800 2259 2472 
Q 1941 2206 1831 2050 
Q 1722 1894 1722 1613 
L 1722 1369 
z
M 1447 716 
Q 1613 716 1731 600 
Q 1850 484 1850 319 
Q 1850 150 1731 36 
Q 1613 -78 1447 -78 
Q 1288 -78 1169 34 
Q 1050 147 1050 319 
Q 1050 488 1167 602 
Q 1284 716 1447 716 
z
" transform="scale(0.015625)"/>
    </defs>
    <use xlink:href="#MicrosoftYaHei-5a1"/>
    <use xlink:href="#MicrosoftYaHei-614" transform="translate(100 0)"/>
    <use xlink:href="#MicrosoftYaHei-676" transform="translate(200 0)"/>
    <use xlink:href="#MicrosoftYaHei-686" transform="translate(300 0)"/>
    <use xlink:href="#MicrosoftYaHei-825" transform="translate(400 0)"/>
    <use xlink:href="#MicrosoftYaHei-5ba" transform="translate(500 0)"/>
    <use xlink:href="#MicrosoftYaHei-565" transform="translate(600 0)"/>
    <use xlink:href="#MicrosoftYaHei-36b" transform="translate(700 0)"/>
    <use xlink:href="#MicrosoftYaHei-8d9" transform="translate(800 0)"/>
    <use xlink:href="#MicrosoftYaHei-6c1" transform="translate(900 0)"/>
    <use xlink:href="#MicrosoftYaHei-493" transform="translate(1000 0)"/>
    <use xlink:href="#MicrosoftYaHei-833" transform="translate(1100 0)"/>
    <use xlink:href="#MicrosoftYaHei-a08" transform="translate(1200 0)"/>
    <use xlink:href="#MicrosoftYaHei-56b" transform="translate(1300 0)"/>
    <use xlink:href="#MicrosoftYaHei-777" transform="translate(1400 0)"/>
    <use xlink:href="#MicrosoftYaHei-591" transform="translate(1500 0)"/>
    <use xlink:href="#MicrosoftYaHei-55f" transform="translate(1600 0)"/>
    <use xlink:href="#MicrosoftYaHei-676" transform="translate(1700 0)"/>
    <use xlink:href="#MicrosoftYaHei-bc4" transform="translate(1800 0)"/>
    <use xlink:href="#MicrosoftYaHei-879" transform="translate(1900 0)"/>
    <use xlink:href="#MicrosoftYaHei-37e" transform="translate(2000 0)"/>
   </g>
  </g>
  <g id="text_31">
   <!-- 每年周数：50、49、48、47、48、30；* 2026 年仅至 8 月。全部为已查看历史。 -->
   <g transform="translate(392.960938 425.52) scale(0.1 -0.1)">
    <defs>
     <path id="MicrosoftYaHei-83f" d="M 125 2203 
L 1044 2203 
L 1325 3766 
L 5456 3766 
Q 5422 2928 5391 2203 
L 6300 2203 
L 6300 1753 
L 5372 1753 
Q 5344 1141 5319 616 
L 6075 616 
L 6075 178 
L 5284 178 
Q 5222 -278 5031 -484 
Q 4788 -753 4181 -753 
Q 3831 -753 3288 -728 
Q 3256 -516 3194 -222 
Q 3838 -278 4119 -278 
Q 4513 -278 4638 -128 
Q 4722 -41 4766 178 
L 763 178 
L 763 647 
L 963 1753 
L 125 1753 
L 125 2203 
z
M 4866 1753 
L 1472 1753 
L 1275 616 
L 4813 616 
Q 4844 1172 4866 1753 
z
M 4925 3328 
L 1750 3328 
L 1553 2203 
L 4888 2203 
Q 4906 2753 4925 3328 
z
M 100 3522 
Q 1025 4309 1550 5359 
L 2113 5359 
Q 1966 5069 1803 4803 
L 6156 4803 
L 6156 4353 
L 1509 4353 
Q 1022 3659 413 3134 
Q 281 3316 100 3522 
z
M 2619 2978 
L 2913 3303 
Q 3388 2934 3750 2622 
L 3413 2247 
Q 3025 2628 2619 2978 
z
M 2569 1391 
L 2863 1716 
Q 3338 1347 3700 1034 
L 3369 666 
Q 2888 1116 2569 1391 
z
" transform="scale(0.015625)"/>
     <path id="MicrosoftYaHei-575" d="M 1175 2753 
Q 1175 1166 1038 572 
Q 888 -153 413 -822 
Q 231 -591 56 -403 
Q 450 197 575 803 
Q 675 1328 675 2634 
L 675 5059 
L 5981 5059 
L 5981 72 
Q 5981 -734 5206 -747 
Q 4763 -753 4219 -734 
Q 4194 -547 4119 -228 
Q 4725 -266 5050 -266 
Q 5494 -266 5494 153 
L 5494 4609 
L 1175 4609 
L 1175 2753 
z
M 1988 1897 
L 4663 1897 
L 4663 209 
L 2463 209 
L 2463 -191 
L 1988 -191 
L 1988 1897 
z
M 1475 2841 
L 3081 2841 
L 3081 3472 
L 1763 3472 
L 1763 3897 
L 3081 3897 
L 3081 4447 
L 3569 4447 
L 3569 3897 
L 4888 3897 
L 4888 3472 
L 3569 3472 
L 3569 2841 
L 5181 2841 
L 5181 2416 
L 1475 2416 
L 1475 2841 
z
M 4188 634 
L 4188 1472 
L 2463 1472 
L 2463 634 
L 4188 634 
z
" transform="scale(0.015625)"/>
     <path id="MicrosoftYaHei-783" d="M 4175 5303 
L 4675 5228 
Q 4544 4622 4369 4097 
L 6281 4097 
L 6281 3672 
L 5888 3672 
Q 5731 1834 5088 753 
Q 5594 66 6375 -372 
Q 6175 -647 6038 -866 
Q 5275 -372 4769 309 
Q 4194 -403 3400 -928 
Q 3263 -747 3044 -534 
Q 3919 41 4463 772 
Q 3956 1647 3794 2791 
Q 3663 2559 3519 2359 
Q 3394 2541 3206 2759 
Q 3931 3803 4175 5303 
z
M 150 1697 
L 1100 1697 
Q 1238 1934 1369 2184 
L 1819 2041 
Q 1719 1866 1619 1697 
L 3150 1697 
L 3150 1291 
Q 2913 678 2431 216 
Q 2775 53 3131 -109 
L 2856 -541 
Q 2469 -322 2050 -103 
Q 1344 -609 269 -903 
Q 169 -703 56 -466 
Q 969 -259 1600 128 
Q 1063 403 475 691 
Q 675 978 863 1284 
L 150 1284 
L 150 1697 
z
M 219 3847 
L 1656 3847 
L 1656 5247 
L 2119 5247 
L 2119 3847 
L 3319 3847 
L 3319 3434 
L 2119 3434 
L 2119 3053 
L 2306 3266 
Q 2888 2841 3281 2516 
L 2981 2166 
Q 2638 2491 2119 2897 
L 2119 2184 
L 1656 2184 
L 1656 3059 
Q 1088 2466 331 2016 
Q 213 2197 63 2397 
Q 850 2822 1506 3434 
L 219 3434 
L 219 3847 
z
M 5388 3672 
L 4219 3672 
Q 4188 3591 4150 3516 
Q 4263 2191 4775 1247 
Q 5275 2159 5388 3672 
z
M 1088 834 
Q 1531 634 2000 416 
Q 2431 784 2675 1284 
L 1375 1284 
Q 1231 1053 1088 834 
z
M 3038 5091 
L 3425 4834 
Q 3081 4384 2738 4003 
Q 2594 4128 2400 4266 
Q 2725 4647 3038 5091 
z
M 381 4816 
L 738 5059 
Q 1019 4716 1319 4322 
L 931 4047 
Q 656 4453 381 4816 
z
" transform="scale(0.015625)"/>
     <path id="MicrosoftYaHei-379" d="M 1606 3531 
Q 1772 3531 1890 3415 
Q 2009 3300 2009 3138 
Q 2009 2975 1893 2858 
Q 1778 2741 1606 2741 
Q 1434 2741 1318 2858 
Q 1203 2975 1203 3138 
Q 1203 3300 1322 3415 
Q 1441 3531 1606 3531 
z
M 1606 716 
Q 1772 716 1890 600 
Q 2009 484 2009 319 
Q 2009 150 1890 36 
Q 1772 -78 1606 -78 
Q 1441 -78 1322 36 
Q 1203 150 1203 319 
Q 1203 484 1322 600 
Q 1441 716 1606 716 
z
" transform="scale(0.015625)"/>
     <path id="MicrosoftYaHei-6f9d" d="M 1931 -413 
L 1556 -791 
Q 1028 -216 397 306 
L 728 650 
Q 1506 22 1931 -413 
z
" transform="scale(0.015625)"/>
     <path id="MicrosoftYaHei-37a" d="M 1606 3531 
Q 1772 3531 1890 3415 
Q 2009 3300 2009 3138 
Q 2009 2975 1893 2858 
Q 1778 2741 1606 2741 
Q 1434 2741 1318 2858 
Q 1203 2975 1203 3138 
Q 1203 3300 1322 3415 
Q 1441 3531 1606 3531 
z
M 1931 775 
L 1403 -891 
L 966 -891 
L 1350 775 
L 1931 775 
z
" transform="scale(0.015625)"/>
     <path id="MicrosoftYaHei-3" transform="scale(0.015625)"/>
     <path id="MicrosoftYaHei-44e" d="M 2131 4416 
L 2131 4853 
L 5906 4853 
L 5906 4428 
Q 5628 2366 4441 953 
Q 5203 175 6338 -284 
Q 6094 -578 5944 -784 
Q 4834 -244 4075 553 
Q 3256 -263 2088 -828 
Q 1969 -659 1713 -366 
Q 2909 184 3716 972 
Q 2634 2359 2459 4416 
L 2131 4416 
z
M 5344 4416 
L 2941 4416 
Q 3138 2572 4081 1363 
Q 5147 2625 5344 4416 
z
M 56 2384 
Q 1044 3716 1531 5328 
L 2038 5159 
Q 1741 4331 1388 3619 
L 1388 -803 
L 900 -803 
L 900 2741 
Q 594 2250 256 1828 
Q 163 2097 56 2384 
z
" transform="scale(0.015625)"/>
     <path id="MicrosoftYaHei-a19" d="M 4263 4147 
Q 5225 3334 6013 2559 
L 5606 2197 
Q 5403 2413 5175 2644 
Q 2988 2588 1306 2459 
Q 1125 2441 806 2359 
L 550 2897 
Q 894 3009 1131 3197 
Q 1763 3719 2428 4522 
L 288 4522 
L 288 4972 
L 6119 4972 
L 6119 4522 
L 3116 4522 
Q 2394 3722 1556 2959 
Q 3019 3022 4738 3072 
Q 4363 3438 3925 3834 
L 4263 4147 
z
M 138 -3 
L 2944 -3 
L 2944 1066 
L 550 1066 
L 550 1516 
L 2944 1516 
L 2944 2366 
L 3469 2366 
L 3469 1516 
L 5825 1516 
L 5825 1066 
L 3469 1066 
L 3469 -3 
L 6256 -3 
L 6256 -453 
L 138 -453 
L 138 -3 
z
" transform="scale(0.015625)"/>
     <path id="MicrosoftYaHei-7c3" d="M 1603 1284 
Q 1463 78 663 -897 
Q 463 -703 231 -522 
Q 838 134 1044 1041 
Q 1188 1709 1188 2891 
L 1188 5053 
L 5363 5053 
L 5363 178 
Q 5363 -747 4481 -747 
Q 4113 -747 3531 -734 
Q 3500 -509 3438 -209 
Q 4013 -247 4344 -247 
Q 4850 -247 4850 247 
L 4850 1284 
L 1603 1284 
z
M 1653 1741 
L 4850 1741 
L 4850 2941 
L 1700 2941 
Q 1700 2316 1653 1741 
z
M 1700 4584 
L 1700 3397 
L 4850 3397 
L 4850 4584 
L 1700 4584 
z
" transform="scale(0.015625)"/>
     <path id="MicrosoftYaHei-6f9e" d="M 1219 863 
Q 1525 863 1750 625 
Q 1975 388 1975 72 
Q 1975 -284 1747 -507 
Q 1519 -731 1197 -731 
Q 875 -731 642 -503 
Q 409 -275 409 66 
Q 409 413 656 638 
Q 903 863 1219 863 
z
M 1209 -275 
Q 1328 -275 1431 -184 
Q 1534 -94 1534 50 
Q 1534 209 1434 304 
Q 1334 400 1191 400 
Q 1056 400 959 304 
Q 863 209 863 53 
Q 863 -100 977 -187 
Q 1091 -275 1209 -275 
z
" transform="scale(0.015625)"/>
     <path id="MicrosoftYaHei-4b6" d="M 369 -103 
L 2950 -103 
L 2950 984 
L 925 984 
L 925 1441 
L 2950 1441 
L 2950 2403 
L 1156 2403 
L 1156 2859 
L 5269 2859 
L 5269 2403 
L 3469 2403 
L 3469 1441 
L 5500 1441 
L 5500 984 
L 3469 984 
L 3469 -103 
L 6044 -103 
L 6044 -566 
L 369 -566 
L 369 -103 
z
M 3656 5234 
L 3531 5078 
Q 4581 3703 6319 3009 
Q 6125 2734 5988 2509 
Q 4338 3322 3219 4691 
Q 2263 3453 394 2428 
Q 269 2641 81 2897 
Q 2013 3866 3000 5234 
L 3656 5234 
z
" transform="scale(0.015625)"/>
     <path id="MicrosoftYaHei-b42" d="M 6288 1247 
Q 6288 172 5444 84 
Q 5125 47 4594 109 
Q 4563 334 4513 659 
Q 4969 584 5294 584 
Q 5844 584 5794 1341 
Q 5769 2009 4838 2709 
Q 5244 3516 5663 4503 
L 4388 4503 
L 4388 -828 
L 3913 -828 
L 3913 4966 
L 6163 4966 
L 6163 4453 
Q 5919 3822 5406 2816 
Q 6288 2128 6288 1247 
z
M 575 1753 
L 3275 1753 
L 3275 -791 
L 2813 -791 
L 2813 -328 
L 1038 -328 
L 1038 -797 
L 575 -797 
L 575 1753 
z
M 2813 1334 
L 1038 1334 
L 1038 103 
L 2813 103 
L 2813 1334 
z
M 125 2822 
L 2125 2822 
Q 2497 3466 2731 3997 
L 3194 3759 
Q 2922 3284 2616 2822 
L 3706 2822 
L 3706 2403 
L 125 2403 
L 125 2822 
z
M 263 4472 
L 1825 4472 
Q 1703 4753 1456 5159 
L 1888 5359 
Q 2169 4891 2288 4616 
L 1981 4472 
L 3594 4472 
L 3594 4053 
L 263 4053 
L 263 4472 
z
M 681 3728 
L 1063 3959 
Q 1375 3516 1631 3072 
L 1206 2828 
Q 1013 3222 681 3728 
z
" transform="scale(0.015625)"/>
     <path id="MicrosoftYaHei-41e" d="M 356 3684 
L 2703 3684 
Q 2794 4450 2794 5341 
L 3331 5341 
Q 3331 4413 3244 3684 
L 5900 3684 
Q 5863 1753 5788 497 
Q 5725 -672 4550 -672 
Q 4063 -672 3394 -641 
Q 3369 -397 3300 -59 
Q 3888 -141 4456 -141 
Q 5206 -141 5244 597 
Q 5331 1822 5356 3197 
L 3175 3197 
Q 2716 441 606 -903 
Q 431 -684 225 -441 
Q 2169 706 2628 3197 
L 356 3197 
L 356 3684 
z
M 3325 2072 
L 3669 2378 
Q 4269 1822 4756 1284 
L 4369 934 
Q 3888 1503 3325 2072 
z
M 800 4922 
L 1138 5234 
Q 1656 4784 2138 4309 
L 1756 3953 
Q 1294 4459 800 4922 
z
" transform="scale(0.015625)"/>
     <path id="MicrosoftYaHei-65d" d="M 738 3684 
L 1275 3684 
L 1275 2828 
L 5013 2828 
L 5013 4434 
L 506 4434 
L 506 4897 
L 5538 4897 
L 5538 1984 
L 5013 1984 
L 5013 2366 
L 1275 2366 
L 1275 547 
Q 1275 -28 1819 -28 
L 4900 -28 
Q 5438 -28 5550 359 
Q 5663 741 5719 1378 
Q 5963 1272 6256 1191 
Q 6169 541 6069 153 
Q 5881 -553 5019 -553 
L 1694 -553 
Q 738 -553 738 434 
L 738 3684 
z
" transform="scale(0.015625)"/>
     <path id="MicrosoftYaHei-7f2" d="M 306 4659 
L 2975 4659 
L 2975 5328 
L 3419 5328 
L 3419 4659 
L 6125 4659 
L 6125 4241 
L 3809 4241 
Q 4797 3488 6306 3103 
Q 6144 2859 6019 2659 
Q 5681 2775 5369 2909 
L 5369 197 
L 4894 197 
L 4894 478 
L 1525 478 
L 1525 191 
L 1050 191 
L 1050 2878 
Q 731 2731 381 2597 
Q 250 2791 88 2997 
Q 1700 3506 2559 4241 
L 306 4241 
L 306 4659 
z
M 156 -141 
L 6244 -141 
L 6244 -591 
L 156 -591 
L 156 -141 
z
M 2975 3066 
L 2975 4138 
Q 2256 3444 1119 2909 
L 5366 2909 
Q 4213 3400 3419 4125 
L 3419 3066 
L 2975 3066 
z
M 1525 909 
L 4894 909 
L 4894 1484 
L 1525 1484 
L 1525 909 
z
M 4894 2478 
L 1525 2478 
L 1525 1909 
L 4894 1909 
L 4894 2478 
z
" transform="scale(0.015625)"/>
     <path id="MicrosoftYaHei-930" d="M 188 3191 
L 2094 3191 
Q 2250 3441 2378 3703 
L 600 3703 
L 600 4103 
L 2559 4103 
Q 2663 4347 2744 4600 
Q 1634 4563 581 4541 
Q 544 4741 494 4966 
Q 3475 5009 5750 5153 
L 5825 4728 
Q 4513 4666 3269 4619 
Q 3184 4359 3081 4103 
L 5800 4103 
L 5800 3703 
L 2903 3703 
Q 2778 3444 2634 3191 
L 6275 3191 
L 6275 2791 
L 2384 2791 
Q 2228 2553 2050 2322 
L 5500 2322 
L 5500 -816 
L 5050 -816 
L 5050 -572 
L 1919 -572 
L 1919 -816 
L 1469 -816 
L 1469 1634 
Q 978 1113 375 628 
Q 250 822 75 1053 
Q 1141 1828 1828 2791 
L 188 2791 
L 188 3191 
z
M 1919 -172 
L 5050 -172 
L 5050 272 
L 1919 272 
L 1919 -172 
z
M 5050 1922 
L 1919 1922 
L 1919 1484 
L 5050 1484 
L 5050 1922 
z
M 1919 659 
L 5050 659 
L 5050 1097 
L 1919 1097 
L 1919 659 
z
" transform="scale(0.015625)"/>
     <path id="MicrosoftYaHei-537" d="M 1669 3084 
L 3028 3084 
Q 3044 3650 3044 4222 
L 3569 4222 
Q 3563 3650 3547 3084 
L 5800 3084 
Q 5725 1422 5656 341 
Q 5556 -616 4688 -634 
Q 4219 -634 3588 -603 
Q 3556 -366 3494 -41 
Q 4113 -109 4588 -109 
Q 5088 -103 5156 466 
Q 5225 1366 5269 2603 
L 3531 2603 
Q 3478 1334 3138 691 
Q 2681 -166 1513 -847 
Q 1338 -641 1144 -422 
Q 2294 284 2644 947 
Q 2969 1528 3013 2603 
L 1669 2603 
L 1669 3084 
z
M 1325 2766 
Q 1319 1384 1144 647 
Q 963 -116 456 -841 
Q 300 -628 81 -416 
Q 506 197 650 816 
Q 794 1416 794 2653 
L 794 4916 
L 6244 4916 
L 6244 4434 
L 1325 4434 
L 1325 2766 
z
" transform="scale(0.015625)"/>
     <path id="MicrosoftYaHei-557" d="M 1331 1953 
Q 1813 1213 2519 750 
Q 2881 1275 2953 2047 
L 725 2047 
L 725 4472 
L 2969 4472 
L 2969 5291 
L 3469 5291 
L 3469 4472 
L 5713 4472 
L 5713 1722 
L 5225 1722 
L 5225 2047 
L 3459 2047 
Q 3394 1144 2969 494 
Q 4241 -119 6313 -228 
Q 6206 -441 6094 -741 
Q 3928 -578 2638 91 
Q 1881 -634 369 -872 
Q 281 -678 113 -416 
Q 1506 -213 2181 369 
Q 1434 888 944 1697 
L 1331 1953 
z
M 5225 4022 
L 3469 4022 
L 3469 2497 
L 5225 2497 
L 5225 4022 
z
M 1213 2497 
L 2969 2497 
L 2969 4022 
L 1213 4022 
L 1213 2497 
z
" transform="scale(0.015625)"/>
    </defs>
    <use xlink:href="#MicrosoftYaHei-83f"/>
    <use xlink:href="#MicrosoftYaHei-676" transform="translate(100 0)"/>
    <use xlink:href="#MicrosoftYaHei-575" transform="translate(200 0)"/>
    <use xlink:href="#MicrosoftYaHei-783" transform="translate(300 0)"/>
    <use xlink:href="#MicrosoftYaHei-379" transform="translate(400 0)"/>
    <use xlink:href="#MicrosoftYaHei-1b" transform="translate(500 0)"/>
    <use xlink:href="#MicrosoftYaHei-16" transform="translate(558.640625 0)"/>
    <use xlink:href="#MicrosoftYaHei-6f9d" transform="translate(617.28125 0)"/>
    <use xlink:href="#MicrosoftYaHei-1a" transform="translate(717.28125 0)"/>
    <use xlink:href="#MicrosoftYaHei-1f" transform="translate(775.921875 0)"/>
    <use xlink:href="#MicrosoftYaHei-6f9d" transform="translate(834.5625 0)"/>
    <use xlink:href="#MicrosoftYaHei-1a" transform="translate(934.5625 0)"/>
    <use xlink:href="#MicrosoftYaHei-1e" transform="translate(993.203125 0)"/>
    <use xlink:href="#MicrosoftYaHei-6f9d" transform="translate(1051.84375 0)"/>
    <use xlink:href="#MicrosoftYaHei-1a" transform="translate(1151.84375 0)"/>
    <use xlink:href="#MicrosoftYaHei-1d" transform="translate(1210.484375 0)"/>
    <use xlink:href="#MicrosoftYaHei-6f9d" transform="translate(1269.125 0)"/>
    <use xlink:href="#MicrosoftYaHei-1a" transform="translate(1369.125 0)"/>
    <use xlink:href="#MicrosoftYaHei-1e" transform="translate(1427.765625 0)"/>
    <use xlink:href="#MicrosoftYaHei-6f9d" transform="translate(1486.40625 0)"/>
    <use xlink:href="#MicrosoftYaHei-19" transform="translate(1586.40625 0)"/>
    <use xlink:href="#MicrosoftYaHei-16" transform="translate(1645.046875 0)"/>
    <use xlink:href="#MicrosoftYaHei-37a" transform="translate(1703.6875 0)"/>
    <use xlink:href="#MicrosoftYaHei-10" transform="translate(1803.6875 0)"/>
    <use xlink:href="#MicrosoftYaHei-3" transform="translate(1849.203125 0)"/>
    <use xlink:href="#MicrosoftYaHei-18" transform="translate(1878.796875 0)"/>
    <use xlink:href="#MicrosoftYaHei-16" transform="translate(1937.4375 0)"/>
    <use xlink:href="#MicrosoftYaHei-18" transform="translate(1996.078125 0)"/>
    <use xlink:href="#MicrosoftYaHei-1c" transform="translate(2054.71875 0)"/>
    <use xlink:href="#MicrosoftYaHei-3" transform="translate(2113.359375 0)"/>
    <use xlink:href="#MicrosoftYaHei-676" transform="translate(2142.953125 0)"/>
    <use xlink:href="#MicrosoftYaHei-44e" transform="translate(2242.953125 0)"/>
    <use xlink:href="#MicrosoftYaHei-a19" transform="translate(2342.953125 0)"/>
    <use xlink:href="#MicrosoftYaHei-3" transform="translate(2442.953125 0)"/>
    <use xlink:href="#MicrosoftYaHei-1e" transform="translate(2472.546875 0)"/>
    <use xlink:href="#MicrosoftYaHei-3" transform="translate(2531.1875 0)"/>
    <use xlink:href="#MicrosoftYaHei-7c3" transform="translate(2560.78125 0)"/>
    <use xlink:href="#MicrosoftYaHei-6f9e" transform="translate(2660.78125 0)"/>
    <use xlink:href="#MicrosoftYaHei-4b6" transform="translate(2760.78125 0)"/>
    <use xlink:href="#MicrosoftYaHei-b42" transform="translate(2860.78125 0)"/>
    <use xlink:href="#MicrosoftYaHei-41e" transform="translate(2960.78125 0)"/>
    <use xlink:href="#MicrosoftYaHei-65d" transform="translate(3060.78125 0)"/>
    <use xlink:href="#MicrosoftYaHei-7f2" transform="translate(3160.78125 0)"/>
    <use xlink:href="#MicrosoftYaHei-930" transform="translate(3260.78125 0)"/>
    <use xlink:href="#MicrosoftYaHei-537" transform="translate(3360.78125 0)"/>
    <use xlink:href="#MicrosoftYaHei-557" transform="translate(3460.78125 0)"/>
    <use xlink:href="#MicrosoftYaHei-6f9e" transform="translate(3560.78125 0)"/>
   </g>
  </g>
  <g id="legend_1">
   <g id="line2d_73">
    <path d="M 395 391.04582 
L 405 391.04582 
L 415 391.04582 
" style="fill: none; stroke: #333333; stroke-width: 2; stroke-linecap: square"/>
    <g>
     <use xlink:href="#m9f27995ba1" x="405" y="391.04582" style="fill: #333333; stroke: #333333"/>
    </g>
   </g>
   <g id="text_32">
    <!-- 年度基线 -->
    <g transform="translate(423 394.54582) scale(0.1 -0.1)">
     <defs>
      <path id="MicrosoftYaHei-5c2" d="M 6319 697 
Q 6113 441 5981 247 
Q 5406 519 4925 897 
L 4925 553 
L 3431 553 
L 3431 -97 
L 5875 -97 
L 5875 -503 
L 519 -503 
L 519 -97 
L 2963 -97 
L 2963 553 
L 1450 553 
L 1450 894 
Q 953 478 413 172 
Q 294 341 88 566 
Q 1050 1034 1753 1753 
L 156 1753 
L 156 2159 
L 1400 2159 
L 1400 4253 
L 350 4253 
L 350 4659 
L 1400 4659 
L 1400 5334 
L 1869 5334 
L 1869 4659 
L 4550 4659 
L 4550 5334 
L 5019 5334 
L 5019 4659 
L 6069 4659 
L 6069 4253 
L 5019 4253 
L 5019 2159 
L 6244 2159 
L 6244 1753 
L 4600 1753 
Q 5303 1053 6319 697 
z
M 2963 1553 
L 3431 1553 
L 3431 947 
L 4863 947 
Q 4416 1306 4047 1753 
L 2325 1753 
Q 1934 1309 1513 947 
L 2963 947 
L 2963 1553 
z
M 1869 2159 
L 4550 2159 
L 4550 2603 
L 1869 2603 
L 1869 2159 
z
M 1869 2991 
L 4550 2991 
L 4550 3428 
L 1869 3428 
L 1869 2991 
z
M 1869 3816 
L 4550 3816 
L 4550 4253 
L 1869 4253 
L 1869 3816 
z
" transform="scale(0.015625)"/>
      <path id="MicrosoftYaHei-9bf" d="M 1969 -347 
Q 3144 75 4003 631 
Q 3781 1197 3653 1972 
L 2319 1784 
L 2244 2234 
L 3591 2422 
Q 3538 2859 3513 3356 
L 2381 3228 
L 2306 3678 
L 3488 3809 
Q 3453 4459 3425 5303 
L 3938 5303 
Q 3953 4497 3978 3866 
L 6069 4103 
L 6125 3659 
L 3997 3413 
Q 4019 2919 4069 2488 
L 6225 2791 
L 6281 2347 
L 4128 2041 
Q 4234 1394 4416 916 
Q 5078 1416 5519 2009 
L 5925 1703 
Q 5363 1025 4619 475 
Q 4859 44 5194 -184 
Q 5606 -428 5725 66 
Q 5806 466 5856 953 
Q 6144 828 6338 772 
Q 6231 97 6125 -247 
Q 5944 -778 5506 -778 
Q 5050 -778 4663 -403 
Q 4409 -163 4209 194 
Q 3350 -363 2281 -772 
Q 2169 -597 1969 -347 
z
M 900 1541 
Q 1456 1622 2213 1753 
Q 2175 1522 2156 1272 
Q 1113 1109 325 978 
L 225 1447 
Q 659 1913 1178 2775 
Q 672 2747 225 2703 
L 106 3128 
Q 688 3922 1300 5353 
L 1775 5166 
Q 1131 3897 669 3166 
Q 1041 3178 1422 3194 
Q 1638 3578 1869 4028 
L 2331 3797 
Q 1569 2478 900 1541 
z
M 106 97 
Q 1206 334 2331 616 
Q 2313 366 2313 141 
Q 1269 -103 244 -378 
L 106 97 
z
M 4463 4972 
L 4731 5284 
Q 5175 5003 5681 4609 
L 5381 4247 
Q 4863 4691 4463 4972 
z
" transform="scale(0.015625)"/>
     </defs>
     <use xlink:href="#MicrosoftYaHei-676"/>
     <use xlink:href="#MicrosoftYaHei-686" transform="translate(100 0)"/>
     <use xlink:href="#MicrosoftYaHei-5c2" transform="translate(200 0)"/>
     <use xlink:href="#MicrosoftYaHei-9bf" transform="translate(300 0)"/>
    </g>
   </g>
   <g id="line2d_74">
    <path d="M 483 391.04582 
L 493 391.04582 
L 503 391.04582 
" style="fill: none; stroke: #0077bb; stroke-width: 2; stroke-linecap: square"/>
    <g>
     <use xlink:href="#m23e560d1e1" x="493" y="391.04582" style="fill: #0077bb; stroke: #0077bb"/>
    </g>
   </g>
   <g id="text_33">
    <!-- 分状态修正 -->
    <g transform="translate(511 394.54582) scale(0.1 -0.1)">
     <defs>
      <path id="MicrosoftYaHei-4e3" d="M 900 2559 
L 5056 2559 
Q 5025 1497 4963 484 
Q 4888 -684 3856 -678 
Q 3350 -684 2788 -647 
Q 2750 -384 2700 -116 
Q 3181 -184 3775 -191 
Q 4400 -203 4463 541 
Q 4513 1216 4538 2097 
L 2616 2097 
Q 2541 1053 2181 416 
Q 1706 -422 588 -878 
Q 425 -666 231 -459 
Q 1269 -72 1725 666 
Q 2053 1225 2103 2097 
L 900 2097 
L 900 2559 
z
M 3488 5159 
L 3938 5353 
Q 4625 3678 6350 2847 
Q 6069 2553 5944 2372 
Q 4225 3366 3488 5159 
z
M 50 2766 
Q 1338 3678 2250 5253 
L 2694 5009 
Q 1744 3347 413 2341 
Q 281 2534 50 2766 
z
" transform="scale(0.015625)"/>
     </defs>
     <use xlink:href="#MicrosoftYaHei-4e3"/>
     <use xlink:href="#MicrosoftYaHei-8d9" transform="translate(100 0)"/>
     <use xlink:href="#MicrosoftYaHei-6c1" transform="translate(200 0)"/>
     <use xlink:href="#MicrosoftYaHei-493" transform="translate(300 0)"/>
     <use xlink:href="#MicrosoftYaHei-833" transform="translate(400 0)"/>
    </g>
   </g>
   <g id="line2d_75">
    <path d="M 581 391.04582 
L 591 391.04582 
L 601 391.04582 
" style="fill: none; stroke: #ee7733; stroke-width: 2; stroke-linecap: square"/>
    <g>
     <use xlink:href="#m63a606cffe" x="591" y="391.04582" style="fill: #ee7733; stroke: #ee7733"/>
    </g>
   </g>
   <g id="text_34">
    <!-- 统一修正 -->
    <g transform="translate(609 394.54582) scale(0.1 -0.1)">
     <defs>
      <path id="MicrosoftYaHei-9cf" d="M 5100 3641 
Q 5625 2934 6175 2047 
Q 5956 1922 5713 1766 
Q 5556 2031 5413 2275 
Q 5122 2256 4813 2241 
L 4813 122 
Q 4813 -259 5094 -259 
L 5400 -259 
Q 5706 -259 5750 53 
Q 5800 428 5813 866 
Q 6019 778 6313 684 
Q 6263 141 6206 -159 
Q 6119 -703 5550 -703 
L 5013 -703 
Q 4331 -703 4331 78 
L 4331 2213 
Q 3981 2194 3606 2169 
Q 3556 809 3256 272 
Q 2900 -416 1925 -866 
Q 1788 -672 1606 -447 
Q 2513 -78 2819 522 
Q 3100 1000 3122 2138 
Q 2994 2128 2863 2122 
Q 2594 2097 2363 2041 
L 2150 2528 
Q 2419 2641 2581 2828 
Q 3050 3388 3463 4047 
L 2100 4047 
L 2100 4491 
L 4094 4491 
Q 3859 4850 3650 5128 
L 4063 5384 
Q 4300 5091 4594 4684 
L 4297 4491 
L 6200 4491 
L 6200 4047 
L 3663 4047 
L 4006 3897 
Q 3488 3197 2988 2609 
Q 4166 2650 5153 2694 
Q 4916 3075 4700 3391 
L 5100 3641 
z
M 894 1534 
Q 1394 1603 2175 1722 
Q 2138 1472 2113 1259 
Q 1331 1153 325 991 
L 225 1441 
Q 616 1841 1153 2744 
Q 503 2700 219 2678 
L 100 3103 
Q 650 3828 1288 5316 
L 1763 5128 
Q 1156 3941 656 3141 
Q 1066 3147 1394 3159 
Q 1581 3494 1788 3884 
L 2256 3678 
Q 1544 2434 894 1534 
z
M 81 222 
Q 1119 422 2225 672 
Q 2200 347 2200 222 
Q 1069 -28 225 -253 
L 81 222 
z
" transform="scale(0.015625)"/>
      <path id="MicrosoftYaHei-25b2" d="M 100 2703 
L 6313 2703 
L 6313 2153 
L 100 2153 
L 100 2703 
z
" transform="scale(0.015625)"/>
     </defs>
     <use xlink:href="#MicrosoftYaHei-9cf"/>
     <use xlink:href="#MicrosoftYaHei-25b2" transform="translate(100 0)"/>
     <use xlink:href="#MicrosoftYaHei-493" transform="translate(200 0)"/>
     <use xlink:href="#MicrosoftYaHei-833" transform="translate(300 0)"/>
    </g>
   </g>
   <g id="line2d_76">
    <path d="M 669 391.04582 
L 679 391.04582 
L 689 391.04582 
" style="fill: none; stroke: #aa4499; stroke-width: 2; stroke-linecap: square"/>
    <g>
     <use xlink:href="#m9b4cd3a8cb" x="679" y="391.04582" style="fill: #aa4499; stroke: #aa4499"/>
    </g>
   </g>
   <g id="text_35">
    <!-- 状态修正减半 -->
    <g transform="translate(697 394.54582) scale(0.1 -0.1)">
     <defs>
      <path id="MicrosoftYaHei-4d7" d="M 3406 -484 
Q 4103 84 4628 878 
Q 4381 1866 4347 3872 
L 2269 3872 
L 2269 2278 
Q 2269 366 1381 -809 
Q 1150 -566 1000 -466 
Q 1831 584 1831 2303 
L 1831 4297 
L 4338 4297 
Q 4331 4800 4331 5278 
L 4788 5278 
Q 4788 4803 4791 4297 
L 6300 4297 
L 6300 3872 
L 4794 3872 
Q 4806 2363 4972 1453 
Q 5403 2256 5688 3253 
L 6138 3097 
Q 5716 1794 5122 813 
Q 5281 250 5488 -47 
Q 5688 -291 5763 53 
Q 5831 422 5881 953 
Q 6175 847 6344 797 
Q 6256 134 6150 -297 
Q 6013 -791 5700 -784 
Q 5431 -791 5194 -478 
Q 4959 -128 4797 316 
Q 4347 -313 3813 -784 
Q 3619 -616 3406 -484 
z
M 2656 2347 
L 4069 2347 
L 4069 509 
L 3069 509 
L 3069 122 
L 2656 122 
L 2656 2347 
z
M 131 16 
Q 519 1059 925 2609 
Q 1163 2497 1388 2409 
Q 1106 1403 638 -153 
L 131 16 
z
M 244 4541 
L 631 4809 
Q 1069 4303 1506 3728 
L 1075 3416 
Q 563 4153 244 4541 
z
M 3656 897 
L 3656 1959 
L 3069 1959 
L 3069 897 
L 3656 897 
z
M 2544 3316 
L 4088 3316 
L 4088 2916 
L 2544 2916 
L 2544 3316 
z
M 5050 5041 
L 5369 5291 
Q 5681 4978 5963 4666 
L 5606 4384 
Q 5350 4709 5050 5041 
z
" transform="scale(0.015625)"/>
      <path id="MicrosoftYaHei-521" d="M 125 1484 
L 2931 1484 
L 2931 2572 
L 381 2572 
L 381 3047 
L 2931 3047 
L 2931 5316 
L 3463 5316 
L 3463 3047 
L 6025 3047 
L 6025 2572 
L 3463 2572 
L 3463 1484 
L 6275 1484 
L 6275 1009 
L 3463 1009 
L 3463 -822 
L 2931 -822 
L 2931 1009 
L 125 1009 
L 125 1484 
z
M 4200 3709 
Q 4750 4222 5363 4959 
L 5800 4609 
Q 5194 3928 4575 3359 
L 4200 3709 
z
M 600 4641 
L 969 4947 
Q 1550 4397 2156 3728 
L 1725 3359 
Q 1081 4159 600 4641 
z
" transform="scale(0.015625)"/>
     </defs>
     <use xlink:href="#MicrosoftYaHei-8d9"/>
     <use xlink:href="#MicrosoftYaHei-6c1" transform="translate(100 0)"/>
     <use xlink:href="#MicrosoftYaHei-493" transform="translate(200 0)"/>
     <use xlink:href="#MicrosoftYaHei-833" transform="translate(300 0)"/>
     <use xlink:href="#MicrosoftYaHei-4d7" transform="translate(400 0)"/>
     <use xlink:href="#MicrosoftYaHei-521" transform="translate(500 0)"/>
    </g>
   </g>
  </g>
 </g>
 <defs>
  <clipPath id="p00b92adc9c">
   <rect x="74.88" y="86.4" width="314.181818" height="246.24"/>
  </clipPath>
  <clipPath id="p66ace1c3a9">
   <rect x="436.189091" y="86.4" width="314.181818" height="246.24"/>
  </clipPath>
  <clipPath id="p445d3da02c">
   <rect x="797.498182" y="86.4" width="314.181818" height="246.24"/>
  </clipPath>
 </defs>
</svg>
