<?xml version="1.0" encoding="utf-8" standalone="no"?>
<!DOCTYPE svg PUBLIC "-//W3C//DTD SVG 1.1//EN"
  "http://www.w3.org/Graphics/SVG/1.1/DTD/svg11.dtd">
<svg xmlns:xlink="http://www.w3.org/1999/xlink" width="1001.99952pt" height="436.130748pt" viewBox="0 0 1001.99952 436.130748" xmlns="http://www.w3.org/2000/svg" version="1.1">
 <metadata>
  <rdf:RDF xmlns:dc="http://purl.org/dc/elements/1.1/" xmlns:cc="http://creativecommons.org/ns#" xmlns:rdf="http://www.w3.org/1999/02/22-rdf-syntax-ns#">
   <cc:Work>
    <dc:type rdf:resource="http://purl.org/dc/dcmitype/StillImage"/>
    <dc:date>2026-09-11T16:09:30.531616</dc:date>
    <dc:format>image/svg+xml</dc:format>
    <dc:creator>
     <cc:Agent>
      <dc:title>Matplotlib v3.11.1, https://matplotlib.org/</dc:title>
     </cc:Agent>
    </dc:creator>
   </cc:Work>
  </rdf:RDF>
 </metadata>
 <defs>
  <style type="text/css">*{stroke-linejoin: round; stroke-linecap: butt}</style>
 </defs>
 <g id="figure_1">
  <g id="patch_1">
   <path d="M 0 436.130748 
L 1001.99952 436.130748 
L 1001.99952 0 
L 0 0 
z
" style="fill: #ffffff"/>
  </g>
  <g id="axes_1">
   <g id="patch_2">
    <path d="M 40.925781 351.798739 
L 496.03176 351.798739 
L 496.03176 43.385402 
L 40.925781 43.385402 
z
" style="fill: #ffffff"/>
   </g>
   <g id="matplotlib.axis_1">
    <g id="xtick_1">
     <g id="line2d_1">
      <defs>
       <path id="md54a666a57" d="M 0 0 
L 0 3.5 
" style="stroke: #000000; stroke-width: 0.8"/>
      </defs>
      <g>
       <use xlink:href="#md54a666a57" x="61.612417" y="351.798739" style="stroke: #000000; stroke-width: 0.8"/>
      </g>
     </g>
     <g id="text_1">
      <text style="font-size: 10px; font-family: 'DejaVu Sans'; text-anchor: middle" x="61.612417" y="366.396395" transform="rotate(-0 61.612417 366.396395)">2015</text>
     </g>
    </g>
    <g id="xtick_2">
     <g id="line2d_2">
      <g>
       <use xlink:href="#md54a666a57" x="144.358958" y="351.798739" style="stroke: #000000; stroke-width: 0.8"/>
      </g>
     </g>
     <g id="text_2">
      <text style="font-size: 10px; font-family: 'DejaVu Sans'; text-anchor: middle" x="144.358958" y="366.396395" transform="rotate(-0 144.358958 366.396395)">2016</text>
     </g>
    </g>
    <g id="xtick_3">
     <g id="line2d_3">
      <g>
       <use xlink:href="#md54a666a57" x="227.1055" y="351.798739" style="stroke: #000000; stroke-width: 0.8"/>
      </g>
     </g>
     <g id="text_3">
      <text style="font-size: 10px; font-family: 'DejaVu Sans'; text-anchor: middle" x="227.1055" y="366.396395" transform="rotate(-0 227.1055 366.396395)">2017</text>
     </g>
    </g>
    <g id="xtick_4">
     <g id="line2d_4">
      <g>
       <use xlink:href="#md54a666a57" x="309.852041" y="351.798739" style="stroke: #000000; stroke-width: 0.8"/>
      </g>
     </g>
     <g id="text_4">
      <text style="font-size: 10px; font-family: 'DejaVu Sans'; text-anchor: middle" x="309.852041" y="366.396395" transform="rotate(-0 309.852041 366.396395)">2018</text>
     </g>
    </g>
    <g id="xtick_5">
     <g id="line2d_5">
      <g>
       <use xlink:href="#md54a666a57" x="392.598583" y="351.798739" style="stroke: #000000; stroke-width: 0.8"/>
      </g>
     </g>
     <g id="text_5">
      <text style="font-size: 10px; font-family: 'DejaVu Sans'; text-anchor: middle" x="392.598583" y="366.396395" transform="rotate(-0 392.598583 366.396395)">2019</text>
     </g>
    </g>
    <g id="xtick_6">
     <g id="line2d_6">
      <g>
       <use xlink:href="#md54a666a57" x="475.345125" y="351.798739" style="stroke: #000000; stroke-width: 0.8"/>
      </g>
     </g>
     <g id="text_6">
      <text style="font-size: 10px; font-family: 'DejaVu Sans'; text-anchor: middle" x="475.345125" y="366.396395" transform="rotate(-0 475.345125 366.396395)">2020</text>
     </g>
    </g>
    <g id="text_7">
     <text style="font-size: 10px; font-family: 'DejaVu Sans'; text-anchor: middle" x="268.478771" y="380.397176" transform="rotate(-0 268.478771 380.397176)">Signal year</text>
    </g>
   </g>
   <g id="matplotlib.axis_2">
    <g id="ytick_1">
     <g id="line2d_7">
      <path d="M 40.925781 351.798739 
L 496.03176 351.798739 
" clip-path="url(#pabe93bbd44)" style="fill: none; stroke: #b0b0b0; stroke-opacity: 0.15; stroke-width: 0.8; stroke-linecap: square"/>
     </g>
     <g id="line2d_8">
      <defs>
       <path id="m405146c272" d="M 0 0 
L -3.5 0 
" style="stroke: #000000; stroke-width: 0.8"/>
      </defs>
      <g>
       <use xlink:href="#m405146c272" x="40.925781" y="351.798739" style="stroke: #000000; stroke-width: 0.8"/>
      </g>
     </g>
     <g id="text_8">
      <text style="font-size: 10px; font-family: 'DejaVu Sans'; text-anchor: end" x="33.925781" y="355.597567" transform="rotate(-0 33.925781 355.597567)">35</text>
     </g>
    </g>
    <g id="ytick_2">
     <g id="line2d_9">
      <path d="M 40.925781 315.082865 
L 496.03176 315.082865 
" clip-path="url(#pabe93bbd44)" style="fill: none; stroke: #b0b0b0; stroke-opacity: 0.15; stroke-width: 0.8; stroke-linecap: square"/>
     </g>
     <g id="line2d_10">
      <g>
       <use xlink:href="#m405146c272" x="40.925781" y="315.082865" style="stroke: #000000; stroke-width: 0.8"/>
      </g>
     </g>
     <g id="text_9">
      <text style="font-size: 10px; font-family: 'DejaVu Sans'; text-anchor: end" x="33.925781" y="318.881693" transform="rotate(-0 33.925781 318.881693)">40</text>
     </g>
    </g>
    <g id="ytick_3">
     <g id="line2d_11">
      <path d="M 40.925781 278.366992 
L 496.03176 278.366992 
" clip-path="url(#pabe93bbd44)" style="fill: none; stroke: #b0b0b0; stroke-opacity: 0.15; stroke-width: 0.8; stroke-linecap: square"/>
     </g>
     <g id="line2d_12">
      <g>
       <use xlink:href="#m405146c272" x="40.925781" y="278.366992" style="stroke: #000000; stroke-width: 0.8"/>
      </g>
     </g>
     <g id="text_10">
      <text style="font-size: 10px; font-family: 'DejaVu Sans'; text-anchor: end" x="33.925781" y="282.16582" transform="rotate(-0 33.925781 282.16582)">45</text>
     </g>
    </g>
    <g id="ytick_4">
     <g id="line2d_13">
      <path d="M 40.925781 241.651118 
L 496.03176 241.651118 
" clip-path="url(#pabe93bbd44)" style="fill: none; stroke: #b0b0b0; stroke-opacity: 0.15; stroke-width: 0.8; stroke-linecap: square"/>
     </g>
     <g id="line2d_14">
      <g>
       <use xlink:href="#m405146c272" x="40.925781" y="241.651118" style="stroke: #000000; stroke-width: 0.8"/>
      </g>
     </g>
     <g id="text_11">
      <text style="font-size: 10px; font-family: 'DejaVu Sans'; text-anchor: end" x="33.925781" y="245.449947" transform="rotate(-0 33.925781 245.449947)">50</text>
     </g>
    </g>
    <g id="ytick_5">
     <g id="line2d_15">
      <path d="M 40.925781 204.935245 
L 496.03176 204.935245 
" clip-path="url(#pabe93bbd44)" style="fill: none; stroke: #b0b0b0; stroke-opacity: 0.15; stroke-width: 0.8; stroke-linecap: square"/>
     </g>
     <g id="line2d_16">
      <g>
       <use xlink:href="#m405146c272" x="40.925781" y="204.935245" style="stroke: #000000; stroke-width: 0.8"/>
      </g>
     </g>
     <g id="text_12">
      <text style="font-size: 10px; font-family: 'DejaVu Sans'; text-anchor: end" x="33.925781" y="208.734073" transform="rotate(-0 33.925781 208.734073)">55</text>
     </g>
    </g>
    <g id="ytick_6">
     <g id="line2d_17">
      <path d="M 40.925781 168.219372 
L 496.03176 168.219372 
" clip-path="url(#pabe93bbd44)" style="fill: none; stroke: #b0b0b0; stroke-opacity: 0.15; stroke-width: 0.8; stroke-linecap: square"/>
     </g>
     <g id="line2d_18">
      <g>
       <use xlink:href="#m405146c272" x="40.925781" y="168.219372" style="stroke: #000000; stroke-width: 0.8"/>
      </g>
     </g>
     <g id="text_13">
      <text style="font-size: 10px; font-family: 'DejaVu Sans'; text-anchor: end" x="33.925781" y="172.0182" transform="rotate(-0 33.925781 172.0182)">60</text>
     </g>
    </g>
    <g id="ytick_7">
     <g id="line2d_19">
      <path d="M 40.925781 131.503498 
L 496.03176 131.503498 
" clip-path="url(#pabe93bbd44)" style="fill: none; stroke: #b0b0b0; stroke-opacity: 0.15; stroke-width: 0.8; stroke-linecap: square"/>
     </g>
     <g id="line2d_20">
      <g>
       <use xlink:href="#m405146c272" x="40.925781" y="131.503498" style="stroke: #000000; stroke-width: 0.8"/>
      </g>
     </g>
     <g id="text_14">
      <text style="font-size: 10px; font-family: 'DejaVu Sans'; text-anchor: end" x="33.925781" y="135.302326" transform="rotate(-0 33.925781 135.302326)">65</text>
     </g>
    </g>
    <g id="ytick_8">
     <g id="line2d_21">
      <path d="M 40.925781 94.787625 
L 496.03176 94.787625 
" clip-path="url(#pabe93bbd44)" style="fill: none; stroke: #b0b0b0; stroke-opacity: 0.15; stroke-width: 0.8; stroke-linecap: square"/>
     </g>
     <g id="line2d_22">
      <g>
       <use xlink:href="#m405146c272" x="40.925781" y="94.787625" style="stroke: #000000; stroke-width: 0.8"/>
      </g>
     </g>
     <g id="text_15">
      <text style="font-size: 10px; font-family: 'DejaVu Sans'; text-anchor: end" x="33.925781" y="98.586453" transform="rotate(-0 33.925781 98.586453)">70</text>
     </g>
    </g>
    <g id="ytick_9">
     <g id="line2d_23">
      <path d="M 40.925781 58.071751 
L 496.03176 58.071751 
" clip-path="url(#pabe93bbd44)" style="fill: none; stroke: #b0b0b0; stroke-opacity: 0.15; stroke-width: 0.8; stroke-linecap: square"/>
     </g>
     <g id="line2d_24">
      <g>
       <use xlink:href="#m405146c272" x="40.925781" y="58.071751" style="stroke: #000000; stroke-width: 0.8"/>
      </g>
     </g>
     <g id="text_16">
      <text style="font-size: 10px; font-family: 'DejaVu Sans'; text-anchor: end" x="33.925781" y="61.870579" transform="rotate(-0 33.925781 61.870579)">75</text>
     </g>
    </g>
    <g id="text_17">
     <text style="font-size: 10px; font-family: 'DejaVu Sans'; text-anchor: middle" x="14.798438" y="197.59207" transform="rotate(-90 14.798438 197.59207)">Direction accuracy (%)</text>
    </g>
   </g>
   <g id="line2d_25">
    <path d="M 61.612417 241.651118 
L 144.358958 226.352838 
L 227.1055 271.023817 
L 309.852041 129.255588 
L 392.598583 193.760849 
L 475.345125 193.760849 
" clip-path="url(#pabe93bbd44)" style="fill: none; stroke: #697889; stroke-width: 1.8; stroke-linecap: square"/>
    <defs>
     <path id="mda4778b3c9" d="M 0 3 
C 0.795609 3 1.55874 2.683901 2.12132 2.12132 
C 2.683901 1.55874 3 0.795609 3 0 
C 3 -0.795609 2.683901 -1.55874 2.12132 -2.12132 
C 1.55874 -2.683901 0.795609 -3 0 -3 
C -0.795609 -3 -1.55874 -2.683901 -2.12132 -2.12132 
C -2.683901 -1.55874 -3 -0.795609 -3 0 
C -3 0.795609 -2.683901 1.55874 -2.12132 2.12132 
C -1.55874 2.683901 -0.795609 3 0 3 
z
" style="stroke: #697889"/>
    </defs>
    <g clip-path="url(#pabe93bbd44)">
     <use xlink:href="#mda4778b3c9" x="61.612417" y="241.651118" style="fill: #697889; stroke: #697889"/>
     <use xlink:href="#mda4778b3c9" x="144.358958" y="226.352838" style="fill: #697889; stroke: #697889"/>
     <use xlink:href="#mda4778b3c9" x="227.1055" y="271.023817" style="fill: #697889; stroke: #697889"/>
     <use xlink:href="#mda4778b3c9" x="309.852041" y="129.255588" style="fill: #697889; stroke: #697889"/>
     <use xlink:href="#mda4778b3c9" x="392.598583" y="193.760849" style="fill: #697889; stroke: #697889"/>
     <use xlink:href="#mda4778b3c9" x="475.345125" y="193.760849" style="fill: #697889; stroke: #697889"/>
    </g>
   </g>
   <g id="line2d_26">
    <path d="M 61.612417 208.273052 
L 144.358958 241.651118 
L 227.1055 212.27842 
L 309.852041 174.2138 
L 392.598583 225.687695 
L 475.345125 225.687695 
" clip-path="url(#pabe93bbd44)" style="fill: none; stroke: #196caf; stroke-width: 1.8; stroke-linecap: square"/>
    <defs>
     <path id="m78dd81a483" d="M 0 3 
C 0.795609 3 1.55874 2.683901 2.12132 2.12132 
C 2.683901 1.55874 3 0.795609 3 0 
C 3 -0.795609 2.683901 -1.55874 2.12132 -2.12132 
C 1.55874 -2.683901 0.795609 -3 0 -3 
C -0.795609 -3 -1.55874 -2.683901 -2.12132 -2.12132 
C -2.683901 -1.55874 -3 -0.795609 -3 0 
C -3 0.795609 -2.683901 1.55874 -2.12132 2.12132 
C -1.55874 2.683901 -0.795609 3 0 3 
z
" style="stroke: #196caf"/>
    </defs>
    <g clip-path="url(#pabe93bbd44)">
     <use xlink:href="#m78dd81a483" x="61.612417" y="208.273052" style="fill: #196caf; stroke: #196caf"/>
     <use xlink:href="#m78dd81a483" x="144.358958" y="241.651118" style="fill: #196caf; stroke: #196caf"/>
     <use xlink:href="#m78dd81a483" x="227.1055" y="212.27842" style="fill: #196caf; stroke: #196caf"/>
     <use xlink:href="#m78dd81a483" x="309.852041" y="174.2138" style="fill: #196caf; stroke: #196caf"/>
     <use xlink:href="#m78dd81a483" x="392.598583" y="225.687695" style="fill: #196caf; stroke: #196caf"/>
     <use xlink:href="#m78dd81a483" x="475.345125" y="225.687695" style="fill: #196caf; stroke: #196caf"/>
    </g>
   </g>
   <g id="line2d_27">
    <path d="M 61.612417 308.407252 
L 144.358958 256.949399 
L 227.1055 300.396516 
L 309.852041 189.199871 
L 392.598583 273.577965 
L 475.345125 209.724272 
" clip-path="url(#pabe93bbd44)" style="fill: none; stroke: #ba526c; stroke-width: 1.8; stroke-linecap: square"/>
    <defs>
     <path id="mfbbf4c0e89" d="M 0 3 
C 0.795609 3 1.55874 2.683901 2.12132 2.12132 
C 2.683901 1.55874 3 0.795609 3 0 
C 3 -0.795609 2.683901 -1.55874 2.12132 -2.12132 
C 1.55874 -2.683901 0.795609 -3 0 -3 
C -0.795609 -3 -1.55874 -2.683901 -2.12132 -2.12132 
C -2.683901 -1.55874 -3 -0.795609 -3 0 
C -3 0.795609 -2.683901 1.55874 -2.12132 2.12132 
C -1.55874 2.683901 -0.795609 3 0 3 
z
" style="stroke: #ba526c"/>
    </defs>
    <g clip-path="url(#pabe93bbd44)">
     <use xlink:href="#mfbbf4c0e89" x="61.612417" y="308.407252" style="fill: #ba526c; stroke: #ba526c"/>
     <use xlink:href="#mfbbf4c0e89" x="144.358958" y="256.949399" style="fill: #ba526c; stroke: #ba526c"/>
     <use xlink:href="#mfbbf4c0e89" x="227.1055" y="300.396516" style="fill: #ba526c; stroke: #ba526c"/>
     <use xlink:href="#mfbbf4c0e89" x="309.852041" y="189.199871" style="fill: #ba526c; stroke: #ba526c"/>
     <use xlink:href="#mfbbf4c0e89" x="392.598583" y="273.577965" style="fill: #ba526c; stroke: #ba526c"/>
     <use xlink:href="#mfbbf4c0e89" x="475.345125" y="209.724272" style="fill: #ba526c; stroke: #ba526c"/>
    </g>
   </g>
   <g id="line2d_28">
    <path d="M 61.612417 308.407252 
L 144.358958 211.054557 
L 227.1055 197.59207 
L 309.852041 294.102366 
L 392.598583 129.907156 
L 475.345125 161.834002 
" clip-path="url(#pabe93bbd44)" style="fill: none; stroke: #a46b29; stroke-width: 1.8; stroke-linecap: square"/>
    <defs>
     <path id="m2f7477bc0d" d="M 0 3 
C 0.795609 3 1.55874 2.683901 2.12132 2.12132 
C 2.683901 1.55874 3 0.795609 3 0 
C 3 -0.795609 2.683901 -1.55874 2.12132 -2.12132 
C 1.55874 -2.683901 0.795609 -3 0 -3 
C -0.795609 -3 -1.55874 -2.683901 -2.12132 -2.12132 
C -2.683901 -1.55874 -3 -0.795609 -3 0 
C -3 0.795609 -2.683901 1.55874 -2.12132 2.12132 
C -1.55874 2.683901 -0.795609 3 0 3 
z
" style="stroke: #a46b29"/>
    </defs>
    <g clip-path="url(#pabe93bbd44)">
     <use xlink:href="#m2f7477bc0d" x="61.612417" y="308.407252" style="fill: #a46b29; stroke: #a46b29"/>
     <use xlink:href="#m2f7477bc0d" x="144.358958" y="211.054557" style="fill: #a46b29; stroke: #a46b29"/>
     <use xlink:href="#m2f7477bc0d" x="227.1055" y="197.59207" style="fill: #a46b29; stroke: #a46b29"/>
     <use xlink:href="#m2f7477bc0d" x="309.852041" y="294.102366" style="fill: #a46b29; stroke: #a46b29"/>
     <use xlink:href="#m2f7477bc0d" x="392.598583" y="129.907156" style="fill: #a46b29; stroke: #a46b29"/>
     <use xlink:href="#m2f7477bc0d" x="475.345125" y="161.834002" style="fill: #a46b29; stroke: #a46b29"/>
    </g>
   </g>
   <g id="patch_3">
    <path d="M 40.925781 351.798739 
L 40.925781 43.385402 
" style="fill: none; stroke: #000000; stroke-width: 0.8; stroke-linejoin: miter; stroke-linecap: square"/>
   </g>
   <g id="patch_4">
    <path d="M 40.925781 351.798739 
L 496.03176 351.798739 
" style="fill: none; stroke: #000000; stroke-width: 0.8; stroke-linejoin: miter; stroke-linecap: square"/>
   </g>
   <g id="text_18">
    <text style="font-size: 12px; font-family: 'DejaVu Sans'; text-anchor: middle" x="268.478771" y="37.385402" transform="rotate(-0 268.478771 37.385402)">Annual variation, all fixed comparators</text>
   </g>
   <g id="legend_1">
    <g id="line2d_29">
     <path d="M 126.789083 54.519074 
L 135.289083 54.519074 
L 143.789083 54.519074 
" style="fill: none; stroke: #697889; stroke-width: 1.8; stroke-linecap: square"/>
     <g>
      <use xlink:href="#mda4778b3c9" x="135.289083" y="54.519074" style="fill: #697889; stroke: #697889"/>
     </g>
    </g>
    <g id="text_19">
     <text style="font-size: 8.5px; font-family: 'DejaVu Sans'; text-anchor: start" x="150.589083" y="57.494074" transform="rotate(-0 150.589083 57.494074)">Original MSE20</text>
    </g>
    <g id="line2d_30">
     <path d="M 126.789083 67.269738 
L 135.289083 67.269738 
L 143.789083 67.269738 
" style="fill: none; stroke: #196caf; stroke-width: 1.8; stroke-linecap: square"/>
     <g>
      <use xlink:href="#m78dd81a483" x="135.289083" y="67.269738" style="fill: #196caf; stroke: #196caf"/>
     </g>
    </g>
    <g id="text_20">
     <text style="font-size: 8.5px; font-family: 'DejaVu Sans'; text-anchor: start" x="150.589083" y="70.244738" transform="rotate(-0 150.589083 70.244738)">Learned features + logistic</text>
    </g>
    <g id="line2d_31">
     <path d="M 282.432052 54.519074 
L 290.932052 54.519074 
L 299.432052 54.519074 
" style="fill: none; stroke: #ba526c; stroke-width: 1.8; stroke-linecap: square"/>
     <g>
      <use xlink:href="#mfbbf4c0e89" x="290.932052" y="54.519074" style="fill: #ba526c; stroke: #ba526c"/>
     </g>
    </g>
    <g id="text_21">
     <text style="font-size: 8.5px; font-family: 'DejaVu Sans'; text-anchor: start" x="306.232052" y="57.494074" transform="rotate(-0 306.232052 57.494074)">Simple OHLCV + logistic</text>
    </g>
    <g id="line2d_32">
     <path d="M 282.432052 67.269738 
L 290.932052 67.269738 
L 299.432052 67.269738 
" style="fill: none; stroke: #a46b29; stroke-width: 1.8; stroke-linecap: square"/>
     <g>
      <use xlink:href="#m2f7477bc0d" x="290.932052" y="67.269738" style="fill: #a46b29; stroke: #a46b29"/>
     </g>
    </g>
    <g id="text_22">
     <text style="font-size: 8.5px; font-family: 'DejaVu Sans'; text-anchor: start" x="306.232052" y="70.244738" transform="rotate(-0 306.232052 70.244738)">Training frequency</text>
    </g>
   </g>
  </g>
  <g id="axes_2">
   <g id="patch_5">
    <path d="M 539.693541 351.798739 
L 994.79952 351.798739 
L 994.79952 43.385402 
L 539.693541 43.385402 
z
" style="fill: #ffffff"/>
   </g>
   <g id="matplotlib.axis_3">
    <g id="xtick_7">
     <g id="line2d_33">
      <g>
       <use xlink:href="#md54a666a57" x="560.380177" y="351.798739" style="stroke: #000000; stroke-width: 0.8"/>
      </g>
     </g>
     <g id="text_23">
      <text style="font-size: 10px; font-family: 'DejaVu Sans'; text-anchor: middle" x="560.380177" y="366.396395" transform="rotate(-0 560.380177 366.396395)">2015</text>
     </g>
    </g>
    <g id="xtick_8">
     <g id="line2d_34">
      <g>
       <use xlink:href="#md54a666a57" x="643.126718" y="351.798739" style="stroke: #000000; stroke-width: 0.8"/>
      </g>
     </g>
     <g id="text_24">
      <text style="font-size: 10px; font-family: 'DejaVu Sans'; text-anchor: middle" x="643.126718" y="366.396395" transform="rotate(-0 643.126718 366.396395)">2016</text>
     </g>
    </g>
    <g id="xtick_9">
     <g id="line2d_35">
      <g>
       <use xlink:href="#md54a666a57" x="725.87326" y="351.798739" style="stroke: #000000; stroke-width: 0.8"/>
      </g>
     </g>
     <g id="text_25">
      <text style="font-size: 10px; font-family: 'DejaVu Sans'; text-anchor: middle" x="725.87326" y="366.396395" transform="rotate(-0 725.87326 366.396395)">2017</text>
     </g>
    </g>
    <g id="xtick_10">
     <g id="line2d_36">
      <g>
       <use xlink:href="#md54a666a57" x="808.619801" y="351.798739" style="stroke: #000000; stroke-width: 0.8"/>
      </g>
     </g>
     <g id="text_26">
      <text style="font-size: 10px; font-family: 'DejaVu Sans'; text-anchor: middle" x="808.619801" y="366.396395" transform="rotate(-0 808.619801 366.396395)">2018</text>
     </g>
    </g>
    <g id="xtick_11">
     <g id="line2d_37">
      <g>
       <use xlink:href="#md54a666a57" x="891.366343" y="351.798739" style="stroke: #000000; stroke-width: 0.8"/>
      </g>
     </g>
     <g id="text_27">
      <text style="font-size: 10px; font-family: 'DejaVu Sans'; text-anchor: middle" x="891.366343" y="366.396395" transform="rotate(-0 891.366343 366.396395)">2019</text>
     </g>
    </g>
    <g id="xtick_12">
     <g id="line2d_38">
      <g>
       <use xlink:href="#md54a666a57" x="974.112885" y="351.798739" style="stroke: #000000; stroke-width: 0.8"/>
      </g>
     </g>
     <g id="text_28">
      <text style="font-size: 10px; font-family: 'DejaVu Sans'; text-anchor: middle" x="974.112885" y="366.396395" transform="rotate(-0 974.112885 366.396395)">2020</text>
     </g>
    </g>
    <g id="text_29">
     <text style="font-size: 10px; font-family: 'DejaVu Sans'; text-anchor: middle" x="767.246531" y="380.397176" transform="rotate(-0 767.246531 380.397176)">Signal year</text>
    </g>
   </g>
   <g id="matplotlib.axis_4">
    <g id="ytick_10">
     <g id="line2d_39">
      <path d="M 539.693541 324.744937 
L 994.79952 324.744937 
" clip-path="url(#pa5cbaca03a)" style="fill: none; stroke: #b0b0b0; stroke-opacity: 0.15; stroke-width: 0.8; stroke-linecap: square"/>
     </g>
     <g id="line2d_40">
      <g>
       <use xlink:href="#m405146c272" x="539.693541" y="324.744937" style="stroke: #000000; stroke-width: 0.8"/>
      </g>
     </g>
     <g id="text_30">
      <text style="font-size: 10px; font-family: 'DejaVu Sans'; text-anchor: end" x="532.693541" y="328.543765" transform="rotate(-0 532.693541 328.543765)">30</text>
     </g>
    </g>
    <g id="ytick_11">
     <g id="line2d_41">
      <path d="M 539.693541 270.637334 
L 994.79952 270.637334 
" clip-path="url(#pa5cbaca03a)" style="fill: none; stroke: #b0b0b0; stroke-opacity: 0.15; stroke-width: 0.8; stroke-linecap: square"/>
     </g>
     <g id="line2d_42">
      <g>
       <use xlink:href="#m405146c272" x="539.693541" y="270.637334" style="stroke: #000000; stroke-width: 0.8"/>
      </g>
     </g>
     <g id="text_31">
      <text style="font-size: 10px; font-family: 'DejaVu Sans'; text-anchor: end" x="532.693541" y="274.436162" transform="rotate(-0 532.693541 274.436162)">40</text>
     </g>
    </g>
    <g id="ytick_12">
     <g id="line2d_43">
      <path d="M 539.693541 216.529731 
L 994.79952 216.529731 
" clip-path="url(#pa5cbaca03a)" style="fill: none; stroke: #b0b0b0; stroke-opacity: 0.15; stroke-width: 0.8; stroke-linecap: square"/>
     </g>
     <g id="line2d_44">
      <g>
       <use xlink:href="#m405146c272" x="539.693541" y="216.529731" style="stroke: #000000; stroke-width: 0.8"/>
      </g>
     </g>
     <g id="text_32">
      <text style="font-size: 10px; font-family: 'DejaVu Sans'; text-anchor: end" x="532.693541" y="220.328559" transform="rotate(-0 532.693541 220.328559)">50</text>
     </g>
    </g>
    <g id="ytick_13">
     <g id="line2d_45">
      <path d="M 539.693541 162.422128 
L 994.79952 162.422128 
" clip-path="url(#pa5cbaca03a)" style="fill: none; stroke: #b0b0b0; stroke-opacity: 0.15; stroke-width: 0.8; stroke-linecap: square"/>
     </g>
     <g id="line2d_46">
      <g>
       <use xlink:href="#m405146c272" x="539.693541" y="162.422128" style="stroke: #000000; stroke-width: 0.8"/>
      </g>
     </g>
     <g id="text_33">
      <text style="font-size: 10px; font-family: 'DejaVu Sans'; text-anchor: end" x="532.693541" y="166.220957" transform="rotate(-0 532.693541 166.220957)">60</text>
     </g>
    </g>
    <g id="ytick_14">
     <g id="line2d_47">
      <path d="M 539.693541 108.314525 
L 994.79952 108.314525 
" clip-path="url(#pa5cbaca03a)" style="fill: none; stroke: #b0b0b0; stroke-opacity: 0.15; stroke-width: 0.8; stroke-linecap: square"/>
     </g>
     <g id="line2d_48">
      <g>
       <use xlink:href="#m405146c272" x="539.693541" y="108.314525" style="stroke: #000000; stroke-width: 0.8"/>
      </g>
     </g>
     <g id="text_34">
      <text style="font-size: 10px; font-family: 'DejaVu Sans'; text-anchor: end" x="532.693541" y="112.113354" transform="rotate(-0 532.693541 112.113354)">70</text>
     </g>
    </g>
    <g id="ytick_15">
     <g id="line2d_49">
      <path d="M 539.693541 54.206922 
L 994.79952 54.206922 
" clip-path="url(#pa5cbaca03a)" style="fill: none; stroke: #b0b0b0; stroke-opacity: 0.15; stroke-width: 0.8; stroke-linecap: square"/>
     </g>
     <g id="line2d_50">
      <g>
       <use xlink:href="#m405146c272" x="539.693541" y="54.206922" style="stroke: #000000; stroke-width: 0.8"/>
      </g>
     </g>
     <g id="text_35">
      <text style="font-size: 10px; font-family: 'DejaVu Sans'; text-anchor: end" x="532.693541" y="58.005751" transform="rotate(-0 532.693541 58.005751)">80</text>
     </g>
    </g>
    <g id="text_36">
     <text style="font-size: 10px; font-family: 'DejaVu Sans'; text-anchor: middle" x="513.566198" y="197.59207" transform="rotate(-90 513.566198 197.59207)">Up probability / frequency (%)</text>
    </g>
   </g>
   <g id="line2d_51">
    <path d="M 560.380177 322.328255 
L 643.126718 261.769285 
L 725.87326 264.836703 
L 808.619801 189.142214 
L 891.366343 251.073827 
L 974.112885 203.625374 
" clip-path="url(#pa5cbaca03a)" style="fill: none; stroke: #ba526c; stroke-width: 1.8; stroke-linecap: square"/>
    <g clip-path="url(#pa5cbaca03a)">
     <use xlink:href="#mfbbf4c0e89" x="560.380177" y="322.328255" style="fill: #ba526c; stroke: #ba526c"/>
     <use xlink:href="#mfbbf4c0e89" x="643.126718" y="261.769285" style="fill: #ba526c; stroke: #ba526c"/>
     <use xlink:href="#mfbbf4c0e89" x="725.87326" y="264.836703" style="fill: #ba526c; stroke: #ba526c"/>
     <use xlink:href="#mfbbf4c0e89" x="808.619801" y="189.142214" style="fill: #ba526c; stroke: #ba526c"/>
     <use xlink:href="#mfbbf4c0e89" x="891.366343" y="251.073827" style="fill: #ba526c; stroke: #ba526c"/>
     <use xlink:href="#mfbbf4c0e89" x="974.112885" y="203.625374" style="fill: #ba526c; stroke: #ba526c"/>
    </g>
   </g>
   <g id="line2d_52">
    <path d="M 560.380177 167.341001 
L 643.126718 193.984897 
L 725.87326 184.06517 
L 808.619801 255.178019 
L 891.366343 134.192075 
L 974.112885 157.717119 
" clip-path="url(#pa5cbaca03a)" style="fill: none; stroke: #52606f; stroke-width: 1.8; stroke-linecap: square"/>
    <defs>
     <path id="m040c352510" d="M 0 3 
C 0.795609 3 1.55874 2.683901 2.12132 2.12132 
C 2.683901 1.55874 3 0.795609 3 0 
C 3 -0.795609 2.683901 -1.55874 2.12132 -2.12132 
C 1.55874 -2.683901 0.795609 -3 0 -3 
C -0.795609 -3 -1.55874 -2.683901 -2.12132 -2.12132 
C -2.683901 -1.55874 -3 -0.795609 -3 0 
C -3 0.795609 -2.683901 1.55874 -2.12132 2.12132 
C -1.55874 2.683901 -0.795609 3 0 3 
z
" style="stroke: #52606f"/>
    </defs>
    <g clip-path="url(#pa5cbaca03a)">
     <use xlink:href="#m040c352510" x="560.380177" y="167.341001" style="fill: #52606f; stroke: #52606f"/>
     <use xlink:href="#m040c352510" x="643.126718" y="193.984897" style="fill: #52606f; stroke: #52606f"/>
     <use xlink:href="#m040c352510" x="725.87326" y="184.06517" style="fill: #52606f; stroke: #52606f"/>
     <use xlink:href="#m040c352510" x="808.619801" y="255.178019" style="fill: #52606f; stroke: #52606f"/>
     <use xlink:href="#m040c352510" x="891.366343" y="134.192075" style="fill: #52606f; stroke: #52606f"/>
     <use xlink:href="#m040c352510" x="974.112885" y="157.717119" style="fill: #52606f; stroke: #52606f"/>
    </g>
   </g>
   <g id="line2d_53">
    <path d="M 560.380177 220.800062 
L 643.126718 214.710988 
L 725.87326 212.756537 
L 808.619801 205.566331 
L 891.366343 210.473961 
L 974.112885 204.908468 
" clip-path="url(#pa5cbaca03a)" style="fill: none; stroke-dasharray: 5.55,2.4; stroke-dashoffset: 0; stroke: #a46b29; stroke-width: 1.5"/>
    <g clip-path="url(#pa5cbaca03a)">
     <use xlink:href="#m2f7477bc0d" x="560.380177" y="220.800062" style="fill: #a46b29; stroke: #a46b29"/>
     <use xlink:href="#m2f7477bc0d" x="643.126718" y="214.710988" style="fill: #a46b29; stroke: #a46b29"/>
     <use xlink:href="#m2f7477bc0d" x="725.87326" y="212.756537" style="fill: #a46b29; stroke: #a46b29"/>
     <use xlink:href="#m2f7477bc0d" x="808.619801" y="205.566331" style="fill: #a46b29; stroke: #a46b29"/>
     <use xlink:href="#m2f7477bc0d" x="891.366343" y="210.473961" style="fill: #a46b29; stroke: #a46b29"/>
     <use xlink:href="#m2f7477bc0d" x="974.112885" y="204.908468" style="fill: #a46b29; stroke: #a46b29"/>
    </g>
   </g>
   <g id="patch_6">
    <path d="M 539.693541 351.798739 
L 539.693541 43.385402 
" style="fill: none; stroke: #000000; stroke-width: 0.8; stroke-linejoin: miter; stroke-linecap: square"/>
   </g>
   <g id="patch_7">
    <path d="M 539.693541 351.798739 
L 994.79952 351.798739 
" style="fill: none; stroke: #000000; stroke-width: 0.8; stroke-linejoin: miter; stroke-linecap: square"/>
   </g>
   <g id="text_37">
    <text style="font-size: 12px; font-family: 'DejaVu Sans'; text-anchor: middle" x="767.246531" y="37.385402" transform="rotate(-0 767.246531 37.385402)">Simple features: annual probability bias</text>
   </g>
   <g id="legend_2">
    <g id="line2d_54">
     <path d="M 685.025203 55.173996 
L 694.025203 55.173996 
L 703.025203 55.173996 
" style="fill: none; stroke: #ba526c; stroke-width: 1.8; stroke-linecap: square"/>
     <g>
      <use xlink:href="#mfbbf4c0e89" x="694.025203" y="55.173996" style="fill: #ba526c; stroke: #ba526c"/>
     </g>
    </g>
    <g id="text_38">
     <text style="font-size: 9px; font-family: 'DejaVu Sans'; text-anchor: start" x="710.225203" y="58.323996" transform="rotate(-0 710.225203 58.323996)">Mean simple-model probability</text>
    </g>
    <g id="line2d_55">
     <path d="M 685.025203 68.674699 
L 694.025203 68.674699 
L 703.025203 68.674699 
" style="fill: none; stroke: #52606f; stroke-width: 1.8; stroke-linecap: square"/>
     <g>
      <use xlink:href="#m040c352510" x="694.025203" y="68.674699" style="fill: #52606f; stroke: #52606f"/>
     </g>
    </g>
    <g id="text_39">
     <text style="font-size: 9px; font-family: 'DejaVu Sans'; text-anchor: start" x="710.225203" y="71.824699" transform="rotate(-0 710.225203 71.824699)">Observed up frequency</text>
    </g>
    <g id="line2d_56">
     <path d="M 685.025203 82.175402 
L 694.025203 82.175402 
L 703.025203 82.175402 
" style="fill: none; stroke-dasharray: 5.55,2.4; stroke-dashoffset: 0; stroke: #a46b29; stroke-width: 1.5"/>
     <g>
      <use xlink:href="#m2f7477bc0d" x="694.025203" y="82.175402" style="fill: #a46b29; stroke: #a46b29"/>
     </g>
    </g>
    <g id="text_40">
     <text style="font-size: 9px; font-family: 'DejaVu Sans'; text-anchor: start" x="710.225203" y="85.325402" transform="rotate(-0 710.225203 85.325402)">Training up frequency</text>
    </g>
   </g>
  </g>
  <g id="text_41">
   <text style="font-weight: 700; font-size: 15px; font-family: 'DejaVu Sans'; text-anchor: middle" x="500.99976" y="18.663281" transform="rotate(-0 500.99976 18.663281)">Round 16 | Annual results and probability diagnostics</text>
  </g>
  <g id="text_42">
   <text style="font-size: 9px; font-family: 'DejaVu Sans'; fill: #425563" transform="translate(24.07176 415.065299)">Retained weeks by year: 22, 48, 50, 49, 46, 46. The 2015 sample is incomplete under the unchanged OHLC validity mask.</text>
   <text style="font-size: 9px; font-family: 'DejaVu Sans'; fill: #425563" transform="translate(24.07176 425.86776)">Probabilities are evaluated after fitting; observed frequencies and these diagnostics never alter the frozen models or decisions.</text>
  </g>
 </g>
 <defs>
  <clipPath id="pabe93bbd44">
   <rect x="40.925781" y="43.385402" width="455.105979" height="308.413337"/>
  </clipPath>
  <clipPath id="pa5cbaca03a">
   <rect x="539.693541" y="43.385402" width="455.105979" height="308.413337"/>
  </clipPath>
 </defs>
</svg>
