<?xml version="1.0" encoding="utf-8" standalone="no"?>
<!DOCTYPE svg PUBLIC "-//W3C//DTD SVG 1.1//EN"
  "http://www.w3.org/Graphics/SVG/1.1/DTD/svg11.dtd">
<svg xmlns:xlink="http://www.w3.org/1999/xlink" width="856.243437pt" height="380.342988pt" viewBox="0 0 856.243437 380.342988" xmlns="http://www.w3.org/2000/svg" version="1.1">
 <metadata>
  <rdf:RDF xmlns:dc="http://purl.org/dc/elements/1.1/" xmlns:cc="http://creativecommons.org/ns#" xmlns:rdf="http://www.w3.org/1999/02/22-rdf-syntax-ns#">
   <cc:Work>
    <dc:type rdf:resource="http://purl.org/dc/dcmitype/StillImage"/>
    <dc:date>2026-09-11T11:29:23.333081</dc:date>
    <dc:format>image/svg+xml</dc:format>
    <dc:creator>
     <cc:Agent>
      <dc:title>Matplotlib v3.11.1, https://matplotlib.org/</dc:title>
     </cc:Agent>
    </dc:creator>
   </cc:Work>
  </rdf:RDF>
 </metadata>
 <defs>
  <style type="text/css">*{stroke-linejoin: round; stroke-linecap: butt}</style>
 </defs>
 <g id="figure_1">
  <g id="patch_1">
   <path d="M 0 380.342988 
L 856.243437 380.342988 
L 856.243437 0 
L 0 0 
z
" style="fill: #ffffff"/>
  </g>
  <g id="axes_1">
   <g id="patch_2">
    <path d="M 40.925781 317.589656 
L 422.443438 317.589656 
L 422.443438 67.15575 
L 40.925781 67.15575 
z
" style="fill: #ffffff"/>
   </g>
   <g id="matplotlib.axis_1">
    <g id="xtick_1">
     <g id="line2d_1">
      <defs>
       <path id="m2903f8a0f8" d="M 0 0 
L 0 3.5 
" style="stroke: #000000; stroke-width: 0.8"/>
      </defs>
      <g>
       <use xlink:href="#m2903f8a0f8" x="58.267493" y="317.589656" style="stroke: #000000; stroke-width: 0.8"/>
      </g>
     </g>
     <g id="text_1">
      <text style="font-size: 10px; font-family: 'DejaVu Sans'; text-anchor: middle" x="58.267493" y="332.187312" transform="rotate(-0 58.267493 332.187312)">−4</text>
     </g>
    </g>
    <g id="xtick_2">
     <g id="line2d_2">
      <g>
       <use xlink:href="#m2903f8a0f8" x="101.621772" y="317.589656" style="stroke: #000000; stroke-width: 0.8"/>
      </g>
     </g>
     <g id="text_2">
      <text style="font-size: 10px; font-family: 'DejaVu Sans'; text-anchor: middle" x="101.621772" y="332.187312" transform="rotate(-0 101.621772 332.187312)">−3</text>
     </g>
    </g>
    <g id="xtick_3">
     <g id="line2d_3">
      <g>
       <use xlink:href="#m2903f8a0f8" x="144.976051" y="317.589656" style="stroke: #000000; stroke-width: 0.8"/>
      </g>
     </g>
     <g id="text_3">
      <text style="font-size: 10px; font-family: 'DejaVu Sans'; text-anchor: middle" x="144.976051" y="332.187312" transform="rotate(-0 144.976051 332.187312)">−2</text>
     </g>
    </g>
    <g id="xtick_4">
     <g id="line2d_4">
      <g>
       <use xlink:href="#m2903f8a0f8" x="188.33033" y="317.589656" style="stroke: #000000; stroke-width: 0.8"/>
      </g>
     </g>
     <g id="text_4">
      <text style="font-size: 10px; font-family: 'DejaVu Sans'; text-anchor: middle" x="188.33033" y="332.187312" transform="rotate(-0 188.33033 332.187312)">−1</text>
     </g>
    </g>
    <g id="xtick_5">
     <g id="line2d_5">
      <g>
       <use xlink:href="#m2903f8a0f8" x="231.684609" y="317.589656" style="stroke: #000000; stroke-width: 0.8"/>
      </g>
     </g>
     <g id="text_5">
      <text style="font-size: 10px; font-family: 'DejaVu Sans'; text-anchor: middle" x="231.684609" y="332.187312" transform="rotate(-0 231.684609 332.187312)">0</text>
     </g>
    </g>
    <g id="xtick_6">
     <g id="line2d_6">
      <g>
       <use xlink:href="#m2903f8a0f8" x="275.038888" y="317.589656" style="stroke: #000000; stroke-width: 0.8"/>
      </g>
     </g>
     <g id="text_6">
      <text style="font-size: 10px; font-family: 'DejaVu Sans'; text-anchor: middle" x="275.038888" y="332.187312" transform="rotate(-0 275.038888 332.187312)">1</text>
     </g>
    </g>
    <g id="xtick_7">
     <g id="line2d_7">
      <g>
       <use xlink:href="#m2903f8a0f8" x="318.393168" y="317.589656" style="stroke: #000000; stroke-width: 0.8"/>
      </g>
     </g>
     <g id="text_7">
      <text style="font-size: 10px; font-family: 'DejaVu Sans'; text-anchor: middle" x="318.393168" y="332.187312" transform="rotate(-0 318.393168 332.187312)">2</text>
     </g>
    </g>
    <g id="xtick_8">
     <g id="line2d_8">
      <g>
       <use xlink:href="#m2903f8a0f8" x="361.747447" y="317.589656" style="stroke: #000000; stroke-width: 0.8"/>
      </g>
     </g>
     <g id="text_8">
      <text style="font-size: 10px; font-family: 'DejaVu Sans'; text-anchor: middle" x="361.747447" y="332.187312" transform="rotate(-0 361.747447 332.187312)">3</text>
     </g>
    </g>
    <g id="xtick_9">
     <g id="line2d_9">
      <g>
       <use xlink:href="#m2903f8a0f8" x="405.101726" y="317.589656" style="stroke: #000000; stroke-width: 0.8"/>
      </g>
     </g>
     <g id="text_9">
      <text style="font-size: 10px; font-family: 'DejaVu Sans'; text-anchor: middle" x="405.101726" y="332.187312" transform="rotate(-0 405.101726 332.187312)">4</text>
     </g>
    </g>
    <g id="text_10">
     <text style="font-size: 10px; font-family: 'DejaVu Sans'; text-anchor: middle" x="231.684609" y="346.188094" transform="rotate(-0 231.684609 346.188094)">Return residual / training return SD</text>
    </g>
   </g>
   <g id="matplotlib.axis_2">
    <g id="ytick_1">
     <g id="line2d_10">
      <defs>
       <path id="m28356047f1" d="M 0 0 
L -3.5 0 
" style="stroke: #000000; stroke-width: 0.8"/>
      </defs>
      <g>
       <use xlink:href="#m28356047f1" x="40.925781" y="306.206297" style="stroke: #000000; stroke-width: 0.8"/>
      </g>
     </g>
     <g id="text_11">
      <text style="font-size: 10px; font-family: 'DejaVu Sans'; text-anchor: end" x="33.925781" y="310.005125" transform="rotate(-0 33.925781 310.005125)">0</text>
     </g>
    </g>
    <g id="ytick_2">
     <g id="line2d_11">
      <g>
       <use xlink:href="#m28356047f1" x="40.925781" y="277.747898" style="stroke: #000000; stroke-width: 0.8"/>
      </g>
     </g>
     <g id="text_12">
      <text style="font-size: 10px; font-family: 'DejaVu Sans'; text-anchor: end" x="33.925781" y="281.546727" transform="rotate(-0 33.925781 281.546727)">2</text>
     </g>
    </g>
    <g id="ytick_3">
     <g id="line2d_12">
      <g>
       <use xlink:href="#m28356047f1" x="40.925781" y="249.2895" style="stroke: #000000; stroke-width: 0.8"/>
      </g>
     </g>
     <g id="text_13">
      <text style="font-size: 10px; font-family: 'DejaVu Sans'; text-anchor: end" x="33.925781" y="253.088328" transform="rotate(-0 33.925781 253.088328)">4</text>
     </g>
    </g>
    <g id="ytick_4">
     <g id="line2d_13">
      <g>
       <use xlink:href="#m28356047f1" x="40.925781" y="220.831102" style="stroke: #000000; stroke-width: 0.8"/>
      </g>
     </g>
     <g id="text_14">
      <text style="font-size: 10px; font-family: 'DejaVu Sans'; text-anchor: end" x="33.925781" y="224.62993" transform="rotate(-0 33.925781 224.62993)">6</text>
     </g>
    </g>
    <g id="ytick_5">
     <g id="line2d_14">
      <g>
       <use xlink:href="#m28356047f1" x="40.925781" y="192.372703" style="stroke: #000000; stroke-width: 0.8"/>
      </g>
     </g>
     <g id="text_15">
      <text style="font-size: 10px; font-family: 'DejaVu Sans'; text-anchor: end" x="33.925781" y="196.171531" transform="rotate(-0 33.925781 196.171531)">8</text>
     </g>
    </g>
    <g id="ytick_6">
     <g id="line2d_15">
      <g>
       <use xlink:href="#m28356047f1" x="40.925781" y="163.914305" style="stroke: #000000; stroke-width: 0.8"/>
      </g>
     </g>
     <g id="text_16">
      <text style="font-size: 10px; font-family: 'DejaVu Sans'; text-anchor: end" x="33.925781" y="167.713133" transform="rotate(-0 33.925781 167.713133)">10</text>
     </g>
    </g>
    <g id="ytick_7">
     <g id="line2d_16">
      <g>
       <use xlink:href="#m28356047f1" x="40.925781" y="135.455906" style="stroke: #000000; stroke-width: 0.8"/>
      </g>
     </g>
     <g id="text_17">
      <text style="font-size: 10px; font-family: 'DejaVu Sans'; text-anchor: end" x="33.925781" y="139.254734" transform="rotate(-0 33.925781 139.254734)">12</text>
     </g>
    </g>
    <g id="ytick_8">
     <g id="line2d_17">
      <g>
       <use xlink:href="#m28356047f1" x="40.925781" y="106.997508" style="stroke: #000000; stroke-width: 0.8"/>
      </g>
     </g>
     <g id="text_18">
      <text style="font-size: 10px; font-family: 'DejaVu Sans'; text-anchor: end" x="33.925781" y="110.796336" transform="rotate(-0 33.925781 110.796336)">14</text>
     </g>
    </g>
    <g id="ytick_9">
     <g id="line2d_18">
      <g>
       <use xlink:href="#m28356047f1" x="40.925781" y="78.539109" style="stroke: #000000; stroke-width: 0.8"/>
      </g>
     </g>
     <g id="text_19">
      <text style="font-size: 10px; font-family: 'DejaVu Sans'; text-anchor: end" x="33.925781" y="82.337937" transform="rotate(-0 33.925781 82.337937)">16</text>
     </g>
    </g>
    <g id="text_20">
     <text style="font-size: 10px; font-family: 'DejaVu Sans'; text-anchor: middle" x="14.798438" y="192.372703" transform="rotate(-90 14.798438 192.372703)">Per-observation return loss</text>
    </g>
   </g>
   <g id="line2d_19">
    <path d="M 58.267493 78.539109 
L 64.626121 94.928617 
L 70.984748 110.705953 
L 77.343376 125.871118 
L 83.702003 140.42411 
L 89.482574 153.12288 
L 95.263144 165.315723 
L 101.043715 177.002638 
L 106.824286 188.183627 
L 112.604856 198.858688 
L 118.385427 209.027823 
L 123.58794 217.747476 
L 128.790454 226.057328 
L 133.992967 233.95738 
L 139.195481 241.44763 
L 144.397994 248.52808 
L 149.600508 255.198728 
L 154.224964 260.784163 
L 158.84942 266.045805 
L 163.473877 270.983653 
L 168.098333 275.597708 
L 172.72279 279.88797 
L 177.347246 283.854438 
L 181.971703 287.497113 
L 186.018102 290.418842 
L 190.064501 293.092667 
L 194.110901 295.518587 
L 198.1573 297.696603 
L 202.2037 299.626715 
L 206.250099 301.308923 
L 210.296498 302.743226 
L 214.342898 303.929625 
L 218.389297 304.86812 
L 222.435696 305.55871 
L 226.482096 306.001396 
L 230.528495 306.196178 
L 234.574895 306.143056 
L 238.621294 305.842029 
L 242.667693 305.293098 
L 246.714093 304.496263 
L 250.760492 303.451524 
L 254.806892 302.15888 
L 258.853291 300.618332 
L 262.89969 298.82988 
L 266.94609 296.793523 
L 270.992489 294.509263 
L 275.038888 291.977098 
L 279.085288 289.197028 
L 283.131687 286.169055 
L 287.178087 282.893177 
L 291.802543 278.84576 
L 296.427 274.47455 
L 301.051456 269.779547 
L 305.675912 264.76075 
L 310.300369 259.41816 
L 314.924825 253.751777 
L 319.549282 247.7616 
L 324.751795 240.635617 
L 329.954309 233.099833 
L 335.156822 225.154248 
L 340.359336 216.798863 
L 345.561849 208.033676 
L 350.764363 198.858688 
L 356.544933 188.183627 
L 362.325504 177.002638 
L 368.106074 165.315723 
L 373.886645 153.12288 
L 379.667215 140.42411 
L 385.447786 127.219413 
L 391.806414 112.109901 
L 398.165041 96.388217 
L 404.523669 80.054361 
L 405.101726 78.539109 
L 405.101726 78.539109 
" clip-path="url(#p8b0105d685)" style="fill: none; stroke: #687e91; stroke-width: 2; stroke-linecap: square"/>
   </g>
   <g id="line2d_20">
    <path d="M 58.267493 206.601902 
L 192.37673 294.509263 
L 196.423129 296.793523 
L 200.469528 298.82988 
L 204.515928 300.618332 
L 208.562327 302.15888 
L 212.608727 303.451524 
L 216.655126 304.496263 
L 220.701525 305.293098 
L 224.747925 305.842029 
L 228.794324 306.143056 
L 232.840723 306.196178 
L 236.887123 306.001396 
L 240.933522 305.55871 
L 244.979922 304.86812 
L 249.026321 303.929625 
L 253.07272 302.743226 
L 257.11912 301.308923 
L 261.165519 299.626715 
L 265.211919 297.696603 
L 269.258318 295.518587 
L 273.304717 293.092667 
L 280.241402 288.56209 
L 405.101726 206.601902 
L 405.101726 206.601902 
" clip-path="url(#p8b0105d685)" style="fill: none; stroke: #229c91; stroke-width: 2; stroke-linecap: square"/>
   </g>
   <g id="line2d_21">
    <path d="M 188.33033 317.589656 
L 188.33033 67.15575 
" clip-path="url(#p8b0105d685)" style="fill: none; stroke-dasharray: 1,1.65; stroke-dashoffset: 0; stroke: #a0abb2"/>
   </g>
   <g id="line2d_22">
    <path d="M 275.038888 317.589656 
L 275.038888 67.15575 
" clip-path="url(#p8b0105d685)" style="fill: none; stroke-dasharray: 1,1.65; stroke-dashoffset: 0; stroke: #a0abb2"/>
   </g>
   <g id="patch_3">
    <path d="M 40.925781 317.589656 
L 40.925781 67.15575 
" style="fill: none; stroke: #000000; stroke-width: 0.8; stroke-linejoin: miter; stroke-linecap: square"/>
   </g>
   <g id="patch_4">
    <path d="M 40.925781 317.589656 
L 422.443438 317.589656 
" style="fill: none; stroke: #000000; stroke-width: 0.8; stroke-linejoin: miter; stroke-linecap: square"/>
   </g>
   <g id="text_21">
    <text style="font-size: 12px; font-family: 'DejaVu Sans'; text-anchor: middle" x="231.684609" y="61.15575" transform="rotate(-0 231.684609 61.15575)">Same quadratic region, linear tails</text>
   </g>
   <g id="legend_1">
    <g id="line2d_23">
     <path d="M 169.917422 80.254187 
L 179.917422 80.254187 
L 189.917422 80.254187 
" style="fill: none; stroke: #687e91; stroke-width: 2; stroke-linecap: square"/>
    </g>
    <g id="text_22">
     <text style="font-size: 10px; font-family: 'DejaVu Sans'; text-anchor: start" x="197.917422" y="83.754187" transform="rotate(-0 197.917422 83.754187)">Squared error</text>
    </g>
    <g id="line2d_24">
     <path d="M 169.917422 95.254969 
L 179.917422 95.254969 
L 189.917422 95.254969 
" style="fill: none; stroke: #229c91; stroke-width: 2; stroke-linecap: square"/>
    </g>
    <g id="text_23">
     <text style="font-size: 10px; font-family: 'DejaVu Sans'; text-anchor: start" x="197.917422" y="98.754969" transform="rotate(-0 197.917422 98.754969)">2 x Huber, delta=1</text>
    </g>
   </g>
  </g>
  <g id="axes_2">
   <g id="patch_5">
    <path d="M 467.525781 317.589656 
L 849.043437 317.589656 
L 849.043437 67.15575 
L 467.525781 67.15575 
z
" style="fill: #ffffff"/>
   </g>
   <g id="patch_6">
    <path d="M 484.867493 317.589656 
L 530.772024 317.589656 
L 530.772024 79.081174 
L 484.867493 79.081174 
z
" clip-path="url(#p00f24e169b)" style="fill: #687e91"/>
   </g>
   <g id="patch_7">
    <path d="M 612.380079 317.589656 
L 658.284609 317.589656 
L 658.284609 89.9586 
L 612.380079 89.9586 
z
" clip-path="url(#p00f24e169b)" style="fill: #687e91"/>
   </g>
   <g id="patch_8">
    <path d="M 739.892664 317.589656 
L 785.797195 317.589656 
L 785.797195 99.729052 
L 739.892664 99.729052 
z
" clip-path="url(#p00f24e169b)" style="fill: #687e91"/>
   </g>
   <g id="patch_9">
    <path d="M 530.772024 317.589656 
L 576.676555 317.589656 
L 576.676555 178.036565 
L 530.772024 178.036565 
z
" clip-path="url(#p00f24e169b)" style="fill: #229c91"/>
   </g>
   <g id="patch_10">
    <path d="M 658.284609 317.589656 
L 704.18914 317.589656 
L 704.18914 181.217777 
L 658.284609 181.217777 
z
" clip-path="url(#p00f24e169b)" style="fill: #229c91"/>
   </g>
   <g id="patch_11">
    <path d="M 785.797195 317.589656 
L 831.701726 317.589656 
L 831.701726 186.57856 
L 785.797195 186.57856 
z
" clip-path="url(#p00f24e169b)" style="fill: #229c91"/>
   </g>
   <g id="matplotlib.axis_3">
    <g id="xtick_10">
     <g id="line2d_25">
      <g>
       <use xlink:href="#m2903f8a0f8" x="530.772024" y="317.589656" style="stroke: #000000; stroke-width: 0.8"/>
      </g>
     </g>
     <g id="text_24">
      <text style="font-size: 10px; font-family: 'DejaVu Sans'; text-anchor: middle" x="530.772024" y="332.188094" transform="rotate(-0 530.772024 332.188094)">2018 fold</text>
     </g>
    </g>
    <g id="xtick_11">
     <g id="line2d_26">
      <g>
       <use xlink:href="#m2903f8a0f8" x="658.284609" y="317.589656" style="stroke: #000000; stroke-width: 0.8"/>
      </g>
     </g>
     <g id="text_25">
      <text style="font-size: 10px; font-family: 'DejaVu Sans'; text-anchor: middle" x="658.284609" y="332.188094" transform="rotate(-0 658.284609 332.188094)">2019 fold</text>
     </g>
    </g>
    <g id="xtick_12">
     <g id="line2d_27">
      <g>
       <use xlink:href="#m2903f8a0f8" x="785.797195" y="317.589656" style="stroke: #000000; stroke-width: 0.8"/>
      </g>
     </g>
     <g id="text_26">
      <text style="font-size: 10px; font-family: 'DejaVu Sans'; text-anchor: middle" x="785.797195" y="332.188094" transform="rotate(-0 785.797195 332.188094)">2020 fold</text>
     </g>
    </g>
   </g>
   <g id="matplotlib.axis_4">
    <g id="ytick_10">
     <g id="line2d_28">
      <g>
       <use xlink:href="#m28356047f1" x="467.525781" y="317.589656" style="stroke: #000000; stroke-width: 0.8"/>
      </g>
     </g>
     <g id="text_27">
      <text style="font-size: 10px; font-family: 'DejaVu Sans'; text-anchor: end" x="460.525781" y="321.388484" transform="rotate(-0 460.525781 321.388484)">0</text>
     </g>
    </g>
    <g id="ytick_11">
     <g id="line2d_29">
      <g>
       <use xlink:href="#m28356047f1" x="467.525781" y="283.608041" style="stroke: #000000; stroke-width: 0.8"/>
      </g>
     </g>
     <g id="text_28">
      <text style="font-size: 10px; font-family: 'DejaVu Sans'; text-anchor: end" x="460.525781" y="287.406869" transform="rotate(-0 460.525781 287.406869)">2</text>
     </g>
    </g>
    <g id="ytick_12">
     <g id="line2d_30">
      <g>
       <use xlink:href="#m28356047f1" x="467.525781" y="249.626426" style="stroke: #000000; stroke-width: 0.8"/>
      </g>
     </g>
     <g id="text_29">
      <text style="font-size: 10px; font-family: 'DejaVu Sans'; text-anchor: end" x="460.525781" y="253.425254" transform="rotate(-0 460.525781 253.425254)">4</text>
     </g>
    </g>
    <g id="ytick_13">
     <g id="line2d_31">
      <g>
       <use xlink:href="#m28356047f1" x="467.525781" y="215.644811" style="stroke: #000000; stroke-width: 0.8"/>
      </g>
     </g>
     <g id="text_30">
      <text style="font-size: 10px; font-family: 'DejaVu Sans'; text-anchor: end" x="460.525781" y="219.443639" transform="rotate(-0 460.525781 219.443639)">6</text>
     </g>
    </g>
    <g id="ytick_14">
     <g id="line2d_32">
      <g>
       <use xlink:href="#m28356047f1" x="467.525781" y="181.663196" style="stroke: #000000; stroke-width: 0.8"/>
      </g>
     </g>
     <g id="text_31">
      <text style="font-size: 10px; font-family: 'DejaVu Sans'; text-anchor: end" x="460.525781" y="185.462024" transform="rotate(-0 460.525781 185.462024)">8</text>
     </g>
    </g>
    <g id="ytick_15">
     <g id="line2d_33">
      <g>
       <use xlink:href="#m28356047f1" x="467.525781" y="147.68158" style="stroke: #000000; stroke-width: 0.8"/>
      </g>
     </g>
     <g id="text_32">
      <text style="font-size: 10px; font-family: 'DejaVu Sans'; text-anchor: end" x="460.525781" y="151.480408" transform="rotate(-0 460.525781 151.480408)">10</text>
     </g>
    </g>
    <g id="ytick_16">
     <g id="line2d_34">
      <g>
       <use xlink:href="#m28356047f1" x="467.525781" y="113.699965" style="stroke: #000000; stroke-width: 0.8"/>
      </g>
     </g>
     <g id="text_33">
      <text style="font-size: 10px; font-family: 'DejaVu Sans'; text-anchor: end" x="460.525781" y="117.498793" transform="rotate(-0 460.525781 117.498793)">12</text>
     </g>
    </g>
    <g id="ytick_17">
     <g id="line2d_35">
      <g>
       <use xlink:href="#m28356047f1" x="467.525781" y="79.71835" style="stroke: #000000; stroke-width: 0.8"/>
      </g>
     </g>
     <g id="text_34">
      <text style="font-size: 10px; font-family: 'DejaVu Sans'; text-anchor: end" x="460.525781" y="83.517178" transform="rotate(-0 460.525781 83.517178)">14</text>
     </g>
    </g>
    <g id="text_35">
     <text style="font-size: 10px; font-family: 'DejaVu Sans'; text-anchor: middle" x="441.398437" y="192.372703" transform="rotate(-90 441.398437 192.372703)">Loss share from top 1% residuals (%)</text>
    </g>
   </g>
   <g id="patch_12">
    <path d="M 467.525781 317.589656 
L 467.525781 67.15575 
" style="fill: none; stroke: #000000; stroke-width: 0.8; stroke-linejoin: miter; stroke-linecap: square"/>
   </g>
   <g id="patch_13">
    <path d="M 467.525781 317.589656 
L 849.043437 317.589656 
" style="fill: none; stroke: #000000; stroke-width: 0.8; stroke-linejoin: miter; stroke-linecap: square"/>
   </g>
   <g id="text_36">
    <text style="font-size: 12px; font-family: 'DejaVu Sans'; text-anchor: middle" x="658.284609" y="61.15575" transform="rotate(-0 658.284609 61.15575)">Same frozen training residuals</text>
   </g>
   <g id="legend_2">
    <g id="patch_14">
     <path d="M 743.10125 83.754187 
L 763.10125 83.754187 
L 763.10125 76.754187 
L 743.10125 76.754187 
z
" style="fill: #687e91"/>
    </g>
    <g id="text_37">
     <text style="font-size: 10px; font-family: 'DejaVu Sans'; text-anchor: start" x="771.10125" y="83.754187" transform="rotate(-0 771.10125 83.754187)">Squared error</text>
    </g>
    <g id="patch_15">
     <path d="M 743.10125 98.754969 
L 763.10125 98.754969 
L 763.10125 91.754969 
L 743.10125 91.754969 
z
" style="fill: #229c91"/>
    </g>
    <g id="text_38">
     <text style="font-size: 10px; font-family: 'DejaVu Sans'; text-anchor: start" x="771.10125" y="98.754969" transform="rotate(-0 771.10125 98.754969)">Scaled Huber</text>
    </g>
   </g>
  </g>
  <g id="text_39">
   <text style="font-weight: 700; font-size: 16px; font-family: 'DejaVu Sans'; text-anchor: start" x="47.683437" y="19.4275" transform="rotate(-0 47.683437 19.4275)">Round 10 | One fixed robust return loss</text>
  </g>
  <g id="text_40">
   <text style="font-size: 9px; font-family: 'DejaVu Sans'; fill: #425563" transform="translate(47.683437 359.277539)">Right: average of the three archived models per fold; no model is refitted for this concentration audit.</text>
   <text style="font-size: 9px; font-family: 'DejaVu Sans'; fill: #425563" transform="translate(47.683437 370.08)">Only return loss changes. Auxiliary OHLCV MSE, original batches, target scales and all observations are retained.</text>
  </g>
 </g>
 <defs>
  <clipPath id="p8b0105d685">
   <rect x="40.925781" y="67.15575" width="381.517656" height="250.433906"/>
  </clipPath>
  <clipPath id="p00f24e169b">
   <rect x="467.525781" y="67.15575" width="381.517656" height="250.433906"/>
  </clipPath>
 </defs>
</svg>
